<svg width="21" height="20" viewBox="0 0 21 20" fill="none" xmlns="http://www.w3.org/2000/svg">
<path d="M10.8313 5.49793C10.9753 5.49793 11.1203 5.53893 11.2493 5.62593C12.4783 6.45293 15.3403 8.53493 15.3403 9.99993C15.3403 11.4649 12.4783 13.5449 11.2483 14.3709C10.9043 14.6019 10.4383 14.5099 10.2083 14.1659C9.97733 13.8219 10.0683 13.3559 10.4123 13.1249C11.5875 12.335 12.6933 11.4176 13.3178 10.75L6.41984 10.75C6.00584 10.75 5.66984 10.414 5.66984 10C5.66984 9.586 6.00584 9.25 6.41984 9.25L13.3259 9.25C12.7028 8.58793 11.5923 7.66463 10.4113 6.86993C10.0673 6.63893 9.97733 6.17293 10.2083 5.82893C10.3523 5.61393 10.5903 5.49793 10.8313 5.49793Z" fill="#FF7F00"/>
<path fill-rule="evenodd" clip-rule="evenodd" d="M20.5 10C20.5 2.617 17.883 1.14393e-07 10.5 4.37114e-07C3.117 7.59835e-07 0.499999 2.617 0.5 10C0.5 17.383 3.117 20 10.5 20C17.883 20 20.5 17.383 20.5 10ZM19 10C19 16.514 17.014 18.5 10.5 18.5C3.986 18.5 2 16.514 2 10C2 3.486 3.986 1.5 10.5 1.5C17.014 1.5 19 3.486 19 10Z" fill="#FF7F00"/>
</svg>
