<svg width="20" height="12" viewBox="0 0 20 12" fill="none" xmlns="http://www.w3.org/2000/svg">
<path fill-rule="evenodd" clip-rule="evenodd" d="M12.9872 0.957447C12.2112 0.636447 11.3452 0.380447 10.8132 0.914447C10.3692 1.36045 10.1162 3.08745 10.0512 4.99945H1.8252C1.2722 4.99945 0.825195 5.44645 0.825195 5.99945C0.825195 6.55245 1.2722 6.99945 1.8252 6.99945H10.0522C10.1172 8.90745 10.3702 10.6284 10.8142 11.0724C11.0482 11.3064 11.3452 11.3944 11.6682 11.3944C12.1212 11.3944 12.6232 11.2204 13.0622 11.0384C14.6332 10.3884 19.1742 7.64245 19.1742 5.99245C19.1742 4.28945 14.4272 1.55445 12.9872 0.957447Z" fill="#FF7F00"/>
</svg>
