<svg width="25" height="25" viewBox="0 0 25 25" fill="none" xmlns="http://www.w3.org/2000/svg">
<path fill-rule="evenodd" clip-rule="evenodd" d="M15.4335 7.45736C14.6575 7.13636 13.7915 6.88036 13.2595 7.41436C12.8155 7.86036 12.5625 9.58736 12.4975 11.4994H4.27148C3.71848 11.4994 3.27148 11.9464 3.27148 12.4994C3.27148 13.0524 3.71848 13.4994 4.27148 13.4994H12.4985C12.5635 15.4074 12.8165 17.1284 13.2605 17.5724C13.4945 17.8064 13.7915 17.8944 14.1145 17.8944C14.5675 17.8944 15.0695 17.7204 15.5085 17.5384C17.0795 16.8884 21.6205 14.1424 21.6205 12.4924C21.6205 10.7894 16.8735 8.05436 15.4335 7.45736Z" fill="#FFFDFD"/>
</svg>
