<svg width="14" height="14" viewBox="0 0 14 14" fill="none" xmlns="http://www.w3.org/2000/svg">
<path fill-rule="evenodd" clip-rule="evenodd" d="M8.74084 0.170868C8.46551 0.136201 8.21884 0.338201 8.18884 0.612201C8.15817 0.886868 8.35618 1.13353 8.63017 1.1642C10.8815 1.4142 12.6295 3.16087 12.8822 5.41153C12.9108 5.66687 13.1268 5.85554 13.3782 5.85554C13.3968 5.85554 13.4162 5.8542 13.4348 5.8522C13.7088 5.8222 13.9062 5.5742 13.8755 5.29953C13.5708 2.5822 11.4595 0.472868 8.74084 0.170868Z" fill="#FF7F01"/>
<path fill-rule="evenodd" clip-rule="evenodd" d="M10.528 5.4586C10.5746 5.69727 10.784 5.8626 11.018 5.8626C11.05 5.8626 11.082 5.85993 11.1146 5.85393C11.3853 5.80126 11.5626 5.53793 11.51 5.26726C11.2386 3.87926 10.1673 2.80793 8.78064 2.5386C8.51598 2.48593 8.24731 2.66326 8.19464 2.9346C8.14198 3.20526 8.31931 3.46793 8.59064 3.5206C9.57464 3.71193 10.336 4.4726 10.528 5.4586Z" fill="#FF7F01"/>
<path fill-rule="evenodd" clip-rule="evenodd" d="M9.35091 8.23207C8.68558 8.55607 8.10958 8.83741 6.61158 7.33941C5.11424 5.84141 5.39424 5.26607 5.71891 4.60007C6.18891 3.63474 6.37891 2.75674 4.24424 0.998739C3.73424 0.582072 3.18091 0.422072 2.60291 0.534072C1.38091 0.762739 0.51891 2.12274 0.51891 2.12274C-0.0224237 2.88007 -0.763757 5.15741 4.01424 9.93607C7.15691 13.0794 9.21824 13.8334 10.4689 13.8334C11.1196 13.8334 11.5509 13.6294 11.8002 13.4501C11.8136 13.4421 13.1856 12.5921 13.4176 11.3461C13.5256 10.7667 13.3682 10.2154 12.9509 9.70541C11.1936 7.57274 10.3156 7.76207 9.35091 8.23207Z" fill="#FF7F01"/>
</svg>
