<svg width="24" height="25" viewBox="0 0 24 25" fill="none" xmlns="http://www.w3.org/2000/svg">
<path fill-rule="evenodd" clip-rule="evenodd" d="M16.091 10.1953L11.341 14.9413C11.2 15.0823 11.01 15.1613 10.811 15.1613C10.612 15.1613 10.421 15.0823 10.28 14.9413L7.909 12.5683C7.616 12.2753 7.616 11.8003 7.909 11.5073C8.203 11.2143 8.678 11.2163 8.97 11.5073L10.811 13.3503L15.03 9.13433C15.323 8.84133 15.798 8.84233 16.091 9.13433C16.384 9.42733 16.384 9.90233 16.091 10.1953ZM12 2.28833C4.802 2.28833 2.25 4.84033 2.25 12.0383C2.25 19.2363 4.802 21.7883 12 21.7883C19.198 21.7883 21.75 19.2363 21.75 12.0383C21.75 4.84033 19.198 2.28833 12 2.28833Z" fill="#00B71B"/>
</svg>
