<svg width="120" height="120" viewBox="0 0 120 120" fill="none" xmlns="http://www.w3.org/2000/svg">
<rect width="120" height="120" rx="34.2857" fill="white"/>
<rect x="17.1426" y="17.1428" width="85.7143" height="85.7143" rx="34.2857" fill="url(#paint0_linear_942_337)"/>
<path d="M39.6426 41.262C39.6426 36.8174 43.2456 33.2144 47.6902 33.2144H73.3807C77.8253 33.2144 81.4283 36.8174 81.4283 41.262V41.5715C81.4283 46.0161 77.8253 49.6191 73.3807 49.6191H47.6902C43.2456 49.6191 39.6426 46.0161 39.6426 41.5715V41.262Z" fill="#FDFEFF"/>
<circle cx="48.6187" cy="41.2617" r="3.09524" fill="#A782FF"/>
<circle cx="56.0464" cy="41.2617" r="3.09524" fill="#B18EFF"/>
<circle cx="48.6179" cy="41.2622" r="1.54762" fill="#FDFEFF"/>
<circle cx="56.0476" cy="41.2622" r="1.54762" fill="#FDFEFF"/>
<rect x="61.9922" y="40.0164" width="14.5764" height="2.91528" rx="1.45764" fill="#A785FF"/>
<path d="M39.6426 59.6101C39.6426 55.1655 43.2456 51.5625 47.6902 51.5625H73.3807C77.8253 51.5625 81.4283 55.1655 81.4283 59.6101V59.9196C81.4283 64.3642 77.8253 67.9673 73.3807 67.9673H47.6902C43.2456 67.9673 39.6426 64.3642 39.6426 59.9196V59.6101Z" fill="#FDFEFF"/>
<circle cx="48.6187" cy="59.61" r="3.09524" fill="#946BFE"/>
<circle cx="56.0464" cy="59.6099" r="3.09524" fill="#946BFE"/>
<circle cx="48.6179" cy="59.6099" r="1.54762" fill="#FDFEFF"/>
<circle cx="56.0476" cy="59.6099" r="1.54762" fill="#FDFEFF"/>
<rect x="61.0215" y="56.2699" width="15.5482" height="6.80233" rx="3.40116" fill="#946BFE"/>
<path d="M39.6426 78.1891C39.6426 73.7445 43.2456 70.1415 47.6902 70.1415H73.3807C77.8253 70.1415 81.4283 73.7445 81.4283 78.1891V78.4986C81.4283 82.9432 77.8253 86.5462 73.3807 86.5462H47.6902C43.2456 86.5462 39.6426 82.9432 39.6426 78.4986V78.1891Z" fill="#FDFEFF"/>
<circle cx="48.6187" cy="78.1887" r="3.09524" fill="#946BFE"/>
<circle cx="56.0464" cy="78.1887" r="3.09524" fill="#946BFE"/>
<circle cx="48.6179" cy="78.1892" r="1.54762" fill="#FDFEFF"/>
<circle cx="56.0476" cy="78.1892" r="1.54762" fill="#FDFEFF"/>
<rect x="61.9922" y="76.9434" width="14.5764" height="2.91528" rx="1.45764" fill="#946BFE"/>
<path d="M65.2336 61.562C65.0063 61.562 64.8113 61.5045 64.6484 61.3895C64.4864 61.2735 64.3617 61.1065 64.2743 60.8884C64.1878 60.6694 64.1446 60.4057 64.1446 60.0975C64.1455 59.7892 64.1892 59.5269 64.2757 59.3107C64.3631 59.0935 64.4878 58.9279 64.6498 58.8138C64.8126 58.6996 65.0073 58.6426 65.2336 58.6426C65.46 58.6426 65.6546 58.6996 65.8175 58.8138C65.9804 58.9279 66.1051 59.0935 66.1916 59.3107C66.279 59.5278 66.3227 59.7901 66.3227 60.0975C66.3227 60.4067 66.279 60.6708 66.1916 60.8898C66.1051 61.1079 65.9804 61.2744 65.8175 61.3895C65.6556 61.5045 65.4609 61.562 65.2336 61.562ZM65.2336 61.13C65.4103 61.13 65.5497 61.043 65.6519 60.8691C65.755 60.6942 65.8065 60.437 65.8065 60.0975C65.8065 59.8729 65.783 59.6843 65.7361 59.5315C65.6892 59.3788 65.6229 59.2637 65.5373 59.1864C65.4517 59.1082 65.3505 59.0691 65.2336 59.0691C65.0579 59.0691 64.9189 59.1565 64.8168 59.3314C64.7146 59.5053 64.6631 59.7607 64.6622 60.0975C64.6613 60.3229 64.6838 60.5125 64.7298 60.6662C64.7767 60.8198 64.843 60.9358 64.9286 61.014C65.0142 61.0913 65.1159 61.13 65.2336 61.13ZM67.9312 58.6812V61.5082H67.4191V59.1795H67.4025L66.7413 59.6019V59.1326L67.4439 58.6812H67.9312ZM69.6939 61.562C69.4666 61.562 69.2715 61.5045 69.1086 61.3895C68.9466 61.2735 68.822 61.1065 68.7345 60.8884C68.648 60.6694 68.6048 60.4057 68.6048 60.0975C68.6057 59.7892 68.6494 59.5269 68.7359 59.3107C68.8233 59.0935 68.948 58.9279 69.11 58.8138C69.2729 58.6996 69.4675 58.6426 69.6939 58.6426C69.9202 58.6426 70.1149 58.6996 70.2778 58.8138C70.4406 58.9279 70.5653 59.0935 70.6518 59.3107C70.7393 59.5278 70.783 59.7901 70.783 60.0975C70.783 60.4067 70.7393 60.6708 70.6518 60.8898C70.5653 61.1079 70.4406 61.2744 70.2778 61.3895C70.1158 61.5045 69.9212 61.562 69.6939 61.562ZM69.6939 61.13C69.8706 61.13 70.01 61.043 70.1121 60.8691C70.2152 60.6942 70.2667 60.437 70.2667 60.0975C70.2667 59.8729 70.2432 59.6843 70.1963 59.5315C70.1494 59.3788 70.0831 59.2637 69.9975 59.1864C69.912 59.1082 69.8107 59.0691 69.6939 59.0691C69.5181 59.0691 69.3792 59.1565 69.277 59.3314C69.1749 59.5053 69.1233 59.7607 69.1224 60.0975C69.1215 60.3229 69.144 60.5125 69.19 60.6662C69.237 60.8198 69.3032 60.9358 69.3888 61.014C69.4744 61.0913 69.5761 61.13 69.6939 61.13ZM72.3914 58.6812V61.5082H71.8793V59.1795H71.8627L71.2016 59.6019V59.1326L71.9041 58.6812H72.3914Z" fill="white"/>
<defs>
<linearGradient id="paint0_linear_942_337" x1="59.9997" y1="17.1428" x2="59.9997" y2="102.857" gradientUnits="userSpaceOnUse">
<stop stop-color="#BC9BFF"/>
<stop offset="1" stop-color="#6E3EFE"/>
</linearGradient>
</defs>
</svg>
