<svg width="335" height="335" viewBox="0 0 335 335" fill="none" xmlns="http://www.w3.org/2000/svg">
<g filter="url(#filter0_d_219_1134)">
<rect x="107.5" y="82" width="120" height="120" rx="34.2857" fill="white" shape-rendering="crispEdges"/>
<g filter="url(#filter1_d_219_1134)">
<rect x="124.643" y="99.1429" width="85.7143" height="85.7143" rx="34.2857" fill="url(#paint0_linear_219_1134)"/>
</g>
<path d="M147.143 123.262C147.143 118.817 150.746 115.214 155.19 115.214H180.881C185.325 115.214 188.928 118.817 188.928 123.262V123.571C188.928 128.016 185.325 131.619 180.881 131.619H155.19C150.746 131.619 147.143 128.016 147.143 123.571V123.262Z" fill="#FDFEFF"/>
<circle cx="156.119" cy="123.262" r="3.09524" fill="#A782FF"/>
<circle cx="163.546" cy="123.262" r="3.09524" fill="#B18EFF"/>
<circle cx="156.118" cy="123.262" r="1.54762" fill="#FDFEFF"/>
<circle cx="163.548" cy="123.262" r="1.54762" fill="#FDFEFF"/>
<rect x="169.492" y="122.016" width="14.5764" height="2.91528" rx="1.45764" fill="#A785FF"/>
<path d="M147.143 141.61C147.143 137.165 150.746 133.562 155.19 133.562H180.881C185.325 133.562 188.928 137.165 188.928 141.61V141.92C188.928 146.364 185.325 149.967 180.881 149.967H155.19C150.746 149.967 147.143 146.364 147.143 141.92V141.61Z" fill="#FDFEFF"/>
<circle cx="156.119" cy="141.61" r="3.09524" fill="#946BFE"/>
<circle cx="163.546" cy="141.61" r="3.09524" fill="#946BFE"/>
<circle cx="156.118" cy="141.61" r="1.54762" fill="#FDFEFF"/>
<circle cx="163.548" cy="141.61" r="1.54762" fill="#FDFEFF"/>
<rect x="168.521" y="138.27" width="15.5482" height="6.80233" rx="3.40116" fill="#946BFE"/>
<path d="M147.143 160.189C147.143 155.744 150.746 152.141 155.19 152.141H180.881C185.325 152.141 188.928 155.744 188.928 160.189V160.498C188.928 164.943 185.325 168.546 180.881 168.546H155.19C150.746 168.546 147.143 164.943 147.143 160.498V160.189Z" fill="#FDFEFF"/>
<circle cx="156.119" cy="160.189" r="3.09524" fill="#946BFE"/>
<circle cx="163.546" cy="160.189" r="3.09524" fill="#946BFE"/>
<circle cx="156.118" cy="160.189" r="1.54762" fill="#FDFEFF"/>
<circle cx="163.548" cy="160.189" r="1.54762" fill="#FDFEFF"/>
<rect x="169.492" y="158.943" width="14.5764" height="2.91528" rx="1.45764" fill="#946BFE"/>
<path d="M172.734 143.562C172.506 143.562 172.311 143.504 172.148 143.389C171.986 143.273 171.862 143.106 171.774 142.888C171.688 142.669 171.645 142.406 171.645 142.097C171.645 141.789 171.689 141.527 171.776 141.311C171.863 141.093 171.988 140.928 172.15 140.814C172.313 140.7 172.507 140.643 172.734 140.643C172.96 140.643 173.155 140.7 173.318 140.814C173.48 140.928 173.605 141.093 173.692 141.311C173.779 141.528 173.823 141.79 173.823 142.097C173.823 142.407 173.779 142.671 173.692 142.89C173.605 143.108 173.48 143.274 173.318 143.389C173.156 143.504 172.961 143.562 172.734 143.562ZM172.734 143.13C172.91 143.13 173.05 143.043 173.152 142.869C173.255 142.694 173.306 142.437 173.306 142.097C173.306 141.873 173.283 141.684 173.236 141.531C173.189 141.379 173.123 141.264 173.037 141.186C172.952 141.108 172.851 141.069 172.734 141.069C172.558 141.069 172.419 141.156 172.317 141.331C172.215 141.505 172.163 141.761 172.162 142.097C172.161 142.323 172.184 142.512 172.23 142.666C172.277 142.82 172.343 142.936 172.429 143.014C172.514 143.091 172.616 143.13 172.734 143.13ZM175.431 140.681V143.508H174.919V141.179H174.903L174.241 141.602V141.133L174.944 140.681H175.431ZM177.194 143.562C176.967 143.562 176.771 143.504 176.609 143.389C176.447 143.273 176.322 143.106 176.235 142.888C176.148 142.669 176.105 142.406 176.105 142.097C176.106 141.789 176.149 141.527 176.236 141.311C176.323 141.093 176.448 140.928 176.61 140.814C176.773 140.7 176.967 140.643 177.194 140.643C177.42 140.643 177.615 140.7 177.778 140.814C177.941 140.928 178.065 141.093 178.152 141.311C178.239 141.528 178.283 141.79 178.283 142.097C178.283 142.407 178.239 142.671 178.152 142.89C178.065 143.108 177.941 143.274 177.778 143.389C177.616 143.504 177.421 143.562 177.194 143.562ZM177.194 143.13C177.371 143.13 177.51 143.043 177.612 142.869C177.715 142.694 177.767 142.437 177.767 142.097C177.767 141.873 177.743 141.684 177.696 141.531C177.649 141.379 177.583 141.264 177.498 141.186C177.412 141.108 177.311 141.069 177.194 141.069C177.018 141.069 176.879 141.156 176.777 141.331C176.675 141.505 176.623 141.761 176.622 142.097C176.621 142.323 176.644 142.512 176.69 142.666C176.737 142.82 176.803 142.936 176.889 143.014C176.974 143.091 177.076 143.13 177.194 143.13ZM179.891 140.681V143.508H179.379V141.179H179.363L178.702 141.602V141.133L179.404 140.681H179.891Z" fill="white"/>
</g>
<defs>
<filter id="filter0_d_219_1134" x="0.357147" y="0.571432" width="334.286" height="334.286" filterUnits="userSpaceOnUse" color-interpolation-filters="sRGB">
<feFlood flood-opacity="0" result="BackgroundImageFix"/>
<feColorMatrix in="SourceAlpha" type="matrix" values="0 0 0 0 0 0 0 0 0 0 0 0 0 0 0 0 0 0 127 0" result="hardAlpha"/>
<feOffset dy="25.7143"/>
<feGaussianBlur stdDeviation="53.5714"/>
<feComposite in2="hardAlpha" operator="out"/>
<feColorMatrix type="matrix" values="0 0 0 0 0.580392 0 0 0 0 0.419608 0 0 0 0 0.996078 0 0 0 0.12 0"/>
<feBlend mode="normal" in2="BackgroundImageFix" result="effect1_dropShadow_219_1134"/>
<feBlend mode="normal" in="SourceGraphic" in2="effect1_dropShadow_219_1134" result="shape"/>
</filter>
<filter id="filter1_d_219_1134" x="120.357" y="99.1429" width="94.2863" height="94.2857" filterUnits="userSpaceOnUse" color-interpolation-filters="sRGB">
<feFlood flood-opacity="0" result="BackgroundImageFix"/>
<feColorMatrix in="SourceAlpha" type="matrix" values="0 0 0 0 0 0 0 0 0 0 0 0 0 0 0 0 0 0 127 0" result="hardAlpha"/>
<feOffset dy="4.28571"/>
<feGaussianBlur stdDeviation="2.14286"/>
<feComposite in2="hardAlpha" operator="out"/>
<feColorMatrix type="matrix" values="0 0 0 0 0.580392 0 0 0 0 0.419608 0 0 0 0 0.996078 0 0 0 0.4 0"/>
<feBlend mode="normal" in2="BackgroundImageFix" result="effect1_dropShadow_219_1134"/>
<feBlend mode="normal" in="SourceGraphic" in2="effect1_dropShadow_219_1134" result="shape"/>
</filter>
<linearGradient id="paint0_linear_219_1134" x1="167.5" y1="99.1429" x2="167.5" y2="184.857" gradientUnits="userSpaceOnUse">
<stop stop-color="#BC9BFF"/>
<stop offset="1" stop-color="#6E3EFE"/>
</linearGradient>
</defs>
</svg>
