<svg width="48" height="48" viewBox="0 0 48 48" fill="none" xmlns="http://www.w3.org/2000/svg">
<rect width="48" height="48" rx="13.7143" fill="white"/>
<rect x="6.85742" y="6.85718" width="34.2857" height="34.2857" rx="13.7143" fill="url(#paint0_linear_928_363)"/>
<path d="M15.8574 16.5047C15.8574 14.7269 17.2986 13.2856 19.0765 13.2856H29.3527C31.1305 13.2856 32.5717 14.7269 32.5717 16.5047V16.6285C32.5717 18.4063 31.1305 19.8475 29.3527 19.8475H19.0765C17.2986 19.8475 15.8574 18.4063 15.8574 16.6285V16.5047Z" fill="#FDFEFF"/>
<circle cx="19.4481" cy="16.5047" r="1.2381" fill="#A782FF"/>
<circle cx="22.4197" cy="16.5047" r="1.2381" fill="#B18EFF"/>
<circle cx="19.4481" cy="16.5048" r="0.619048" fill="#FDFEFF"/>
<circle cx="22.4189" cy="16.5048" r="0.619048" fill="#FDFEFF"/>
<rect x="24.7979" y="16.0066" width="5.83056" height="1.16611" rx="0.583057" fill="#A785FF"/>
<path d="M15.8574 23.844C15.8574 22.0662 17.2986 20.625 19.0765 20.625H29.3527C31.1305 20.625 32.5717 22.0662 32.5717 23.844V23.9679C32.5717 25.7457 31.1305 27.1869 29.3527 27.1869H19.0765C17.2986 27.1869 15.8574 25.7457 15.8574 23.9679V23.844Z" fill="#FDFEFF"/>
<circle cx="19.4481" cy="23.8441" r="1.2381" fill="#946BFE"/>
<circle cx="22.4197" cy="23.8441" r="1.2381" fill="#946BFE"/>
<circle cx="19.4481" cy="23.8439" r="0.619048" fill="#FDFEFF"/>
<circle cx="22.4189" cy="23.8439" r="0.619048" fill="#FDFEFF"/>
<rect x="24.4092" y="22.5081" width="6.21927" height="2.72093" rx="1.36047" fill="#946BFE"/>
<path d="M15.8574 31.2757C15.8574 29.4979 17.2986 28.0566 19.0765 28.0566H29.3527C31.1305 28.0566 32.5717 29.4979 32.5717 31.2757V31.3995C32.5717 33.1773 31.1305 34.6185 29.3527 34.6185H19.0765C17.2986 34.6185 15.8574 33.1773 15.8574 31.3995V31.2757Z" fill="#FDFEFF"/>
<circle cx="19.4481" cy="31.2754" r="1.2381" fill="#946BFE"/>
<circle cx="22.4197" cy="31.2754" r="1.2381" fill="#946BFE"/>
<circle cx="19.4481" cy="31.2758" r="0.619048" fill="#FDFEFF"/>
<circle cx="22.4189" cy="31.2758" r="0.619048" fill="#FDFEFF"/>
<rect x="24.7979" y="30.7773" width="5.83056" height="1.16611" rx="0.583057" fill="#946BFE"/>
<path d="M26.0937 25.0247C26.0027 25.0247 25.9247 25.0017 25.8595 24.9557C25.7948 24.9093 25.7449 24.8425 25.7099 24.7553C25.6753 24.6677 25.658 24.5622 25.658 24.4389C25.6584 24.3156 25.6759 24.2107 25.7105 24.1242C25.7454 24.0373 25.7953 23.971 25.8601 23.9254C25.9253 23.8798 26.0031 23.8569 26.0937 23.8569C26.1842 23.8569 26.2621 23.8798 26.3272 23.9254C26.3924 23.971 26.4422 24.0373 26.4768 24.1242C26.5118 24.211 26.5293 24.3159 26.5293 24.4389C26.5293 24.5626 26.5118 24.6682 26.4768 24.7558C26.4422 24.8431 26.3924 24.9097 26.3272 24.9557C26.2624 25.0017 26.1846 25.0247 26.0937 25.0247ZM26.0937 24.8519C26.1643 24.8519 26.2201 24.8171 26.2609 24.7475C26.3022 24.6776 26.3228 24.5747 26.3228 24.4389C26.3228 24.3491 26.3134 24.2736 26.2946 24.2125C26.2759 24.1514 26.2494 24.1054 26.2151 24.0745C26.1809 24.0432 26.1404 24.0275 26.0937 24.0275C26.0233 24.0275 25.9678 24.0625 25.9269 24.1325C25.886 24.202 25.8654 24.3042 25.8651 24.4389C25.8647 24.5291 25.8737 24.6049 25.8921 24.6664C25.9109 24.7278 25.9374 24.7742 25.9716 24.8055C26.0059 24.8364 26.0465 24.8519 26.0937 24.8519ZM27.1727 23.8724V25.0032H26.9678V24.0717H26.9612L26.6967 24.2407V24.0529L26.9778 23.8724H27.1727ZM27.8777 25.0247C27.7868 25.0247 27.7088 25.0017 27.6436 24.9557C27.5789 24.9093 27.529 24.8425 27.494 24.7553C27.4594 24.6677 27.4421 24.5622 27.4421 24.4389C27.4425 24.3156 27.46 24.2107 27.4946 24.1242C27.5295 24.0373 27.5794 23.971 27.6442 23.9254C27.7093 23.8798 27.7872 23.8569 27.8777 23.8569C27.9683 23.8569 28.0461 23.8798 28.1113 23.9254C28.1764 23.971 28.2263 24.0373 28.2609 24.1242C28.2959 24.211 28.3134 24.3159 28.3134 24.4389C28.3134 24.5626 28.2959 24.6682 28.2609 24.7558C28.2263 24.8431 28.1764 24.9097 28.1113 24.9557C28.0465 25.0017 27.9687 25.0247 27.8777 25.0247ZM27.8777 24.8519C27.9484 24.8519 28.0042 24.8171 28.045 24.7475C28.0863 24.6776 28.1069 24.5747 28.1069 24.4389C28.1069 24.3491 28.0975 24.2736 28.0787 24.2125C28.0599 24.1514 28.0334 24.1054 27.9992 24.0745C27.965 24.0432 27.9245 24.0275 27.8777 24.0275C27.8074 24.0275 27.7519 24.0625 27.711 24.1325C27.6701 24.202 27.6495 24.3042 27.6492 24.4389C27.6488 24.5291 27.6578 24.6049 27.6762 24.6664C27.695 24.7278 27.7215 24.7742 27.7557 24.8055C27.79 24.8364 27.8306 24.8519 27.8777 24.8519ZM28.9568 23.8724V25.0032H28.7519V24.0717H28.7453L28.4808 24.2407V24.0529L28.7619 23.8724H28.9568Z" fill="white"/>
<defs>
<linearGradient id="paint0_linear_928_363" x1="24.0003" y1="6.85718" x2="24.0003" y2="41.1429" gradientUnits="userSpaceOnUse">
<stop stop-color="#BC9BFF"/>
<stop offset="1" stop-color="#6E3EFE"/>
</linearGradient>
</defs>
</svg>
