<svg width="40" height="40" viewBox="0 0 40 40" fill="none" xmlns="http://www.w3.org/2000/svg">
<rect width="40" height="40" rx="20" fill="#CDCDCD" fill-opacity="0.22"/>
<path fill-rule="evenodd" clip-rule="evenodd" d="M31.3337 19.9996C31.3337 15.7356 24.031 11.5836 22.567 10.7943C21.9177 10.4436 21.1097 10.6863 20.7603 11.3356C20.4123 11.9823 20.6523 12.7916 21.3017 13.141C23.743 14.4596 26.9737 16.7756 28.1803 18.6676H10.0003C9.26299 18.6676 8.66699 19.2636 8.66699 20.001C8.66699 20.737 9.26299 21.3343 10.0003 21.3343H28.1777C26.9697 23.2263 23.7417 25.5423 21.3017 26.8596C20.6523 27.2103 20.4123 28.0183 20.7603 28.6663C21.0017 29.113 21.4617 29.3663 21.935 29.3663C22.1483 29.3663 22.3657 29.3156 22.567 29.2063C24.0297 28.417 31.327 24.2676 31.3337 20.0036C31.3337 20.0023 31.3337 19.9996 31.3337 19.9996Z" fill="black"/>
</svg>
