<svg width="56" height="56" viewBox="0 0 56 56" fill="none" xmlns="http://www.w3.org/2000/svg">
<rect x="0.132812" y="23.0292" width="40" height="40" rx="20" transform="rotate(-35.1507 0.132812 23.0292)" fill="#CDCDCD" fill-opacity="0.22"/>
<path fill-rule="evenodd" clip-rule="evenodd" d="M37.2663 21.3421C34.8114 17.8557 26.45 18.6652 24.7985 18.8627C24.0657 18.9498 23.5447 19.6134 23.633 20.3455C23.7207 21.0746 24.3829 21.5981 25.115 21.5099C27.8703 21.1826 31.8452 21.2163 33.9211 22.0685L19.0564 32.5353C18.4535 32.9598 18.3093 33.7902 18.7338 34.3931C19.1576 34.9949 19.9888 35.1401 20.5917 34.7156L35.4542 24.2504C35.5558 26.4929 34.2498 30.245 33.0132 32.7269C32.6842 33.3874 32.9531 34.1863 33.6107 34.5157C34.0652 34.742 34.5872 34.6843 34.9742 34.4118C35.1486 34.289 35.2971 34.1224 35.3988 33.9171C36.1403 32.4296 39.718 24.8357 37.2686 21.3454C37.2678 21.3443 37.2663 21.3421 37.2663 21.3421Z" fill="black"/>
</svg>
