<svg width="112" height="112" viewBox="0 0 112 112" fill="none" xmlns="http://www.w3.org/2000/svg">
<rect width="112" height="112" rx="32" fill="white"/>
<rect x="16" y="16" width="80" height="80" rx="32" fill="url(#paint0_linear_926_337)"/>
<path fill-rule="evenodd" clip-rule="evenodd" d="M62.1844 37.4751C60.2378 31.5083 51.7622 31.5083 49.8156 37.4751L48.3718 41.9006C47.5013 44.569 45.0045 46.3756 42.1874 46.3756H37.5152C31.2158 46.3756 28.5967 54.4038 33.693 58.0915L37.4728 60.8267C39.752 62.4758 40.7057 65.399 39.8351 68.0674L38.3913 72.493C36.4447 78.4597 43.3017 83.4214 48.3979 79.7337L52.1778 76.9986C54.4569 75.3495 57.5431 75.3495 59.8222 76.9986L63.6021 79.7337C68.6983 83.4214 75.5553 78.4597 73.6087 72.493L72.1649 68.0674C71.2943 65.399 72.248 62.4758 74.5271 60.8267L78.307 58.0915C83.4033 54.4038 80.7842 46.3756 74.4848 46.3756H69.8126C66.9955 46.3756 64.4987 44.569 63.6282 41.9006L62.1844 37.4751ZM64.2909 78.2536C68.104 78.7014 72.9503 77.2818 71.8331 70.6532C71.3636 72.3445 69.1979 76.2325 64.2909 78.2536ZM40.4357 71.3008C40.1953 75.1172 41.8838 79.859 48.4682 78.3853C46.7468 78.011 42.7304 76.07 40.4357 71.3008ZM49.5793 56.8351L53.4137 60.1873L61.6304 51.5773C62.6962 50.4604 64.4415 50.3377 65.6543 51.2943C67.0223 52.3734 67.1757 54.385 65.9871 55.6575L56.083 66.2599C55.1394 67.2699 53.5665 67.3663 52.5058 66.479L45.9748 61.0159C44.7859 60.0214 44.6513 58.2473 45.6768 57.0862C46.6852 55.9443 48.4318 55.832 49.5793 56.8351Z" fill="white"/>
<path d="M33 44.5C37.1667 45.1667 45.9 44.3 47.5 35.5" stroke="white" stroke-width="2" stroke-linecap="round"/>
<path d="M64.1479 35.8724C65.8431 39.7366 71.2998 46.6102 79.5649 43.1913" stroke="white" stroke-width="2" stroke-linecap="round"/>
<defs>
<linearGradient id="paint0_linear_926_337" x1="56" y1="16" x2="56" y2="96" gradientUnits="userSpaceOnUse">
<stop stop-color="#00F3F6"/>
<stop offset="1" stop-color="#058CF9"/>
</linearGradient>
</defs>
</svg>
