<svg width="35" height="35" viewBox="0 0 35 35" fill="none" xmlns="http://www.w3.org/2000/svg">
<rect width="35" height="35" rx="12" fill="#FF7F00" fill-opacity="0.08"/>
<path d="M25.7328 16.5784C25.7044 16.4582 25.6467 16.3469 25.565 16.2543C25.4832 16.1618 25.3798 16.0908 25.264 16.0478L19.8631 14.0219L21.2375 7.14718C21.2686 6.98745 21.2469 6.82194 21.1757 6.6756C21.1045 6.52927 20.9877 6.41007 20.8428 6.33599C20.6979 6.2619 20.5328 6.23695 20.3725 6.2649C20.2122 6.29285 20.0653 6.37219 19.954 6.49093L9.45403 17.7409C9.36876 17.8308 9.30706 17.9404 9.27447 18.0599C9.24188 18.1794 9.2394 18.3052 9.26725 18.4259C9.29511 18.5466 9.35243 18.6585 9.43411 18.7517C9.51578 18.8448 9.61925 18.9163 9.73528 18.9597L15.1381 20.9856L13.7675 27.8528C13.7364 28.0125 13.758 28.1781 13.8292 28.3244C13.9004 28.4707 14.0173 28.5899 14.1622 28.664C14.3071 28.7381 14.4721 28.763 14.6324 28.7351C14.7928 28.7071 14.9396 28.6278 15.0509 28.5091L25.5509 17.2591C25.6346 17.1692 25.695 17.0601 25.7267 16.9414C25.7585 16.8228 25.7605 16.6981 25.7328 16.5784ZM15.7559 25.5625L16.7375 20.6519C16.7726 20.4777 16.7448 20.2967 16.6589 20.1412C16.5731 19.9856 16.4348 19.8656 16.2687 19.8025L11.315 17.9416L19.2481 9.44218L18.2675 14.3528C18.2323 14.527 18.2602 14.7079 18.346 14.8635C18.4319 15.019 18.5701 15.1391 18.7362 15.2022L23.6862 17.0584L15.7559 25.5625Z" fill="black"/>
</svg>
