<svg width="312" height="313" viewBox="0 0 312 313" fill="none" xmlns="http://www.w3.org/2000/svg">
<g filter="url(#filter0_d_50_105)">
<rect x="100" y="76.5" width="112" height="112" rx="32" fill="white" shape-rendering="crispEdges"/>
<g filter="url(#filter1_d_50_105)">
<rect x="116" y="92.5" width="80" height="80" rx="32" fill="url(#paint0_linear_50_105)"/>
</g>
<path d="M164.271 153.616C164.271 149.468 166.831 145.848 169.617 142.776C172.583 139.505 174.39 135.163 174.39 130.4C174.39 120.221 166.138 111.969 155.959 111.969C145.78 111.969 137.528 120.221 137.528 130.4C137.528 134.988 139.205 139.185 141.98 142.411C144.569 145.422 146.924 148.925 146.924 152.896V154.613H164.271V153.616Z" fill="white"/>
<path d="M146.201 155.336H164.993V157.504H146.201V155.336Z" fill="white"/>
<path d="M164.993 159.311C164.993 158.712 164.508 158.227 163.909 158.227H147.285C146.687 158.227 146.201 158.712 146.201 159.311C146.201 159.91 146.687 160.395 147.285 160.395H152.706C152.706 161.194 153.353 161.841 154.152 161.841H157.766C158.564 161.841 159.211 161.194 159.211 160.395H163.909C164.508 160.395 164.993 159.91 164.993 159.311Z" fill="white"/>
<circle cx="155.877" cy="130.318" r="12.7032" fill="#FEB325"/>
<path d="M153.16 121.881C153.924 119.204 157.718 119.204 158.482 121.881C158.892 123.317 160.368 124.169 161.816 123.806C164.517 123.129 166.414 126.415 164.478 128.415C163.439 129.488 163.439 131.193 164.478 132.266C166.415 134.266 164.517 137.552 161.816 136.875C160.368 136.512 158.892 137.364 158.482 138.8C157.718 141.477 153.924 141.477 153.16 138.8C152.75 137.364 151.275 136.512 149.826 136.875C147.125 137.552 145.228 134.266 147.165 132.266C148.204 131.193 148.204 129.488 147.165 128.415C145.228 126.415 147.125 123.129 149.826 123.806C151.275 124.169 152.75 123.317 153.16 121.881ZM155.727 125.165C152.817 125.165 150.458 127.524 150.458 130.435C150.458 133.345 152.817 135.704 155.727 135.704C158.637 135.704 160.997 133.345 160.997 130.435C160.997 127.524 158.637 125.165 155.727 125.165Z" fill="white"/>
<rect width="1.88196" height="4.7049" rx="0.94098" transform="matrix(0.507645 -0.861566 -0.861566 -0.507645 176.397 147.972)" fill="white"/>
<rect x="135.66" y="147.972" width="1.88196" height="4.7049" rx="0.94098" transform="rotate(-120.507 135.66 147.972)" fill="white"/>
<rect x="130" y="130.789" width="1.88196" height="4.7049" rx="0.94098" transform="rotate(-90 130 130.789)" fill="white"/>
<rect width="1.88196" height="4.7049" rx="0.94098" transform="matrix(0 -1 -1 0 181.754 130.789)" fill="white"/>
<rect x="155.406" y="103.508" width="1.88196" height="4.7049" rx="0.94098" transform="rotate(-0.246949 155.406 103.508)" fill="white"/>
<rect x="174.285" y="110.087" width="1.88196" height="4.7049" rx="0.94098" transform="rotate(54.354 174.285 110.087)" fill="white"/>
<rect width="1.88196" height="4.7049" rx="0.94098" transform="matrix(-0.582776 0.812633 0.812633 0.582776 138.625 110.087)" fill="white"/>
</g>
<defs>
<filter id="filter0_d_50_105" x="0" y="0.5" width="312" height="312" filterUnits="userSpaceOnUse" color-interpolation-filters="sRGB">
<feFlood flood-opacity="0" result="BackgroundImageFix"/>
<feColorMatrix in="SourceAlpha" type="matrix" values="0 0 0 0 0 0 0 0 0 0 0 0 0 0 0 0 0 0 127 0" result="hardAlpha"/>
<feOffset dy="24"/>
<feGaussianBlur stdDeviation="50"/>
<feComposite in2="hardAlpha" operator="out"/>
<feColorMatrix type="matrix" values="0 0 0 0 1 0 0 0 0 0.466667 0 0 0 0 0.101961 0 0 0 0.35 0"/>
<feBlend mode="normal" in2="BackgroundImageFix" result="effect1_dropShadow_50_105"/>
<feBlend mode="normal" in="SourceGraphic" in2="effect1_dropShadow_50_105" result="shape"/>
</filter>
<filter id="filter1_d_50_105" x="112" y="92.5" width="88" height="88" filterUnits="userSpaceOnUse" color-interpolation-filters="sRGB">
<feFlood flood-opacity="0" result="BackgroundImageFix"/>
<feColorMatrix in="SourceAlpha" type="matrix" values="0 0 0 0 0 0 0 0 0 0 0 0 0 0 0 0 0 0 127 0" result="hardAlpha"/>
<feOffset dy="4"/>
<feGaussianBlur stdDeviation="2"/>
<feComposite in2="hardAlpha" operator="out"/>
<feColorMatrix type="matrix" values="0 0 0 0 1 0 0 0 0 0.466667 0 0 0 0 0.101961 0 0 0 0.38 0"/>
<feBlend mode="normal" in2="BackgroundImageFix" result="effect1_dropShadow_50_105"/>
<feBlend mode="normal" in="SourceGraphic" in2="effect1_dropShadow_50_105" result="shape"/>
</filter>
<linearGradient id="paint0_linear_50_105" x1="156" y1="92.5" x2="156" y2="172.5" gradientUnits="userSpaceOnUse">
<stop stop-color="#FEC128"/>
<stop offset="1" stop-color="#FF771A"/>
</linearGradient>
</defs>
</svg>
