<svg width="112" height="112" viewBox="0 0 112 112" fill="none" xmlns="http://www.w3.org/2000/svg">
<rect width="112" height="112" rx="32" fill="white"/>
<rect x="16" y="16" width="80" height="80" rx="32" fill="url(#paint0_linear_912_340)"/>
<path d="M64.2712 77.1155C64.2712 72.9685 66.8313 69.3481 69.617 66.2759C72.5831 63.0047 74.3902 58.6632 74.3902 53.8997C74.3902 43.7206 66.1384 35.4688 55.9593 35.4688C45.7801 35.4688 37.5283 43.7206 37.5283 53.8997C37.5283 58.4884 39.2052 62.6855 41.9797 65.9115C44.569 68.9223 46.9245 72.4248 46.9245 76.3959V78.1129H64.2712V77.1155Z" fill="white"/>
<path d="M46.2012 78.8357H64.9935V81.004H46.2012V78.8357Z" fill="white"/>
<path d="M64.9935 82.811C64.9935 82.2122 64.5081 81.7268 63.9093 81.7268H47.2853C46.6866 81.7268 46.2012 82.2122 46.2012 82.811V82.811C46.2012 83.4098 46.6866 83.8952 47.2853 83.8952H52.7062V83.8952C52.7062 84.6935 53.3534 85.3407 54.1518 85.3407H57.7657C58.564 85.3407 59.2112 84.6935 59.2112 83.8952V83.8952H63.9093C64.5081 83.8952 64.9935 83.4098 64.9935 82.811V82.811Z" fill="white"/>
<circle cx="55.8771" cy="53.818" r="12.7032" fill="#FEB325"/>
<path d="M53.16 45.3808C53.9241 42.7038 57.718 42.7038 58.4822 45.3808C58.8921 46.8169 60.3676 47.6686 61.8162 47.3056C64.5167 46.6287 66.4143 49.9146 64.4783 51.915C63.4394 52.9881 63.4394 54.6925 64.4783 55.7656C66.4145 57.766 64.5168 61.0519 61.8162 60.375C60.3676 60.0121 58.8921 60.8637 58.4822 62.2998C57.7181 64.9772 53.924 64.9772 53.16 62.2998C52.7501 60.8637 51.2746 60.0119 49.826 60.375C47.1253 61.0519 45.2282 57.766 47.1648 55.7656C48.2036 54.6925 48.2037 52.9881 47.1648 51.915C45.2284 49.9146 47.1253 46.6287 49.826 47.3056C51.2747 47.6688 52.7501 46.817 53.16 45.3808ZM55.7273 48.665C52.8171 48.665 50.4578 51.0243 50.4578 53.9346C50.4578 56.8448 52.8171 59.2041 55.7273 59.2041C58.6375 59.204 60.9969 56.8447 60.9969 53.9346C60.9969 51.0244 58.6375 48.6651 55.7273 48.665Z" fill="white"/>
<rect width="1.88196" height="4.7049" rx="0.94098" transform="matrix(0.507645 -0.861566 -0.861566 -0.507645 76.3975 71.4722)" fill="white"/>
<rect x="35.6602" y="71.4722" width="1.88196" height="4.7049" rx="0.94098" transform="rotate(-120.507 35.6602 71.4722)" fill="white"/>
<rect x="30" y="54.2886" width="1.88196" height="4.7049" rx="0.94098" transform="rotate(-90 30 54.2886)" fill="white"/>
<rect width="1.88196" height="4.7049" rx="0.94098" transform="matrix(0 -1 -1 0 81.7539 54.2886)" fill="white"/>
<rect x="55.4062" y="27.0081" width="1.88196" height="4.7049" rx="0.94098" transform="rotate(-0.246949 55.4062 27.0081)" fill="white"/>
<rect x="74.2852" y="33.5869" width="1.88196" height="4.7049" rx="0.94098" transform="rotate(54.354 74.2852 33.5869)" fill="white"/>
<rect width="1.88196" height="4.7049" rx="0.94098" transform="matrix(-0.582776 0.812633 0.812633 0.582776 38.625 33.5869)" fill="white"/>
<defs>
<linearGradient id="paint0_linear_912_340" x1="56" y1="16" x2="56" y2="96" gradientUnits="userSpaceOnUse">
<stop stop-color="#FEC128"/>
<stop offset="1" stop-color="#FF771A"/>
</linearGradient>
</defs>
</svg>
