<svg width="22" height="22" viewBox="0 0 22 22" fill="none" xmlns="http://www.w3.org/2000/svg">
<path d="M13.4139 13.424C13.4139 13.424 13.5813 13.2566 13.9162 12.9218C14.251 12.587 14.4184 11.9464 14.4184 10.9999C14.4184 10.0535 14.0836 9.24547 13.4139 8.57582C12.7443 7.90618 11.9362 7.57136 10.9898 7.57136C10.0434 7.57136 9.23535 7.90618 8.56571 8.57582C7.89607 9.24547 7.56124 10.0535 7.56124 10.9999C7.56124 11.9464 7.89607 12.7544 8.56571 13.424C9.23535 14.0937 10.0434 14.4285 10.9898 14.4285C11.9362 14.4285 12.7443 14.0937 13.4139 13.424ZM14.7264 7.26332C14.7264 7.26332 14.9831 7.52002 15.4965 8.03341C16.0099 8.54681 16.2666 9.53564 16.2666 10.9999C16.2666 12.4642 15.7532 13.7098 14.7264 14.7365C13.6996 15.7633 12.4541 16.2767 10.9898 16.2767C9.52553 16.2767 8.27999 15.7633 7.25321 14.7365C6.22642 13.7098 5.71303 12.4642 5.71303 10.9999C5.71303 9.53564 6.22642 8.29011 7.25321 7.26332C8.27999 6.23654 9.52553 5.72314 10.9898 5.72314C12.4541 5.72314 13.6996 6.23654 14.7264 7.26332ZM17.3514 4.63832C17.3514 4.63832 17.4117 4.69859 17.5322 4.81913C17.6528 4.93966 17.713 5.16957 17.713 5.50886C17.713 5.84814 17.5925 6.13832 17.3514 6.37939C17.1104 6.62047 16.8202 6.741 16.4809 6.741C16.1416 6.741 15.8514 6.62047 15.6104 6.37939C15.3693 6.13832 15.2487 5.84814 15.2487 5.50886C15.2487 5.16957 15.3693 4.87939 15.6104 4.63832C15.8514 4.39725 16.1416 4.27672 16.4809 4.27672C16.8202 4.27672 17.1104 4.39725 17.3514 4.63832ZM12.0144 2.55573C12.0144 2.55573 11.8592 2.55685 11.549 2.55908C11.2387 2.56131 11.0523 2.56243 10.9898 2.56243C10.9273 2.56243 10.5858 2.5602 9.96526 2.55573C9.34473 2.55127 8.87374 2.55127 8.55232 2.55573C8.23089 2.5602 7.80008 2.57359 7.25991 2.59591C6.71973 2.61823 6.25991 2.66288 5.88044 2.72984C5.50098 2.7968 5.18178 2.87939 4.92285 2.97761C4.47642 3.15618 4.08357 3.41511 3.74428 3.75439C3.40499 4.09368 3.14607 4.48654 2.96749 4.93297C2.86928 5.19189 2.78669 5.51109 2.71973 5.89056C2.65276 6.27002 2.60812 6.72984 2.5858 7.27002C2.56348 7.8102 2.55008 8.241 2.54562 8.56243C2.54116 8.88386 2.54116 9.35484 2.54562 9.97538C2.55008 10.5959 2.55232 10.9374 2.55232 10.9999C2.55232 11.0624 2.55008 11.4039 2.54562 12.0245C2.54116 12.645 2.54116 13.116 2.54562 13.4374C2.55008 13.7589 2.56348 14.1897 2.5858 14.7298C2.60812 15.27 2.65276 15.7298 2.71973 16.1093C2.78669 16.4888 2.86928 16.808 2.96749 17.0669C3.14607 17.5133 3.40499 17.9062 3.74428 18.2455C4.08357 18.5848 4.47642 18.8437 4.92285 19.0223C5.18178 19.1205 5.50098 19.2031 5.88044 19.27C6.25991 19.337 6.71973 19.3816 7.25991 19.4039C7.80008 19.4263 8.23089 19.4397 8.55232 19.4441C8.87374 19.4486 9.34473 19.4486 9.96526 19.4441C10.5858 19.4397 10.9273 19.4374 10.9898 19.4374C11.0523 19.4374 11.3938 19.4397 12.0144 19.4441C12.6349 19.4486 13.1059 19.4486 13.4273 19.4441C13.7487 19.4397 14.1795 19.4263 14.7197 19.4039C15.2599 19.3816 15.7197 19.337 16.0992 19.27C16.4787 19.2031 16.7979 19.1205 17.0568 19.0223C17.5032 18.8437 17.8961 18.5848 18.2354 18.2455C18.5746 17.9062 18.8336 17.5133 19.0121 17.0669C19.1104 16.808 19.1929 16.4888 19.2599 16.1093C19.3269 15.7298 19.3715 15.27 19.3938 14.7298C19.4162 14.1897 19.4295 13.7589 19.434 13.4374C19.4385 13.116 19.4385 12.645 19.434 12.0245C19.4295 11.4039 19.4273 11.0624 19.4273 10.9999C19.4273 10.9374 19.4295 10.5959 19.434 9.97538C19.4385 9.35484 19.4385 8.88386 19.434 8.56243C19.4295 8.241 19.4162 7.8102 19.3938 7.27002C19.3715 6.72984 19.3269 6.27002 19.2599 5.89056C19.1929 5.51109 19.1104 5.19189 19.0121 4.93297C18.8336 4.48654 18.5746 4.09368 18.2354 3.75439C17.8961 3.41511 17.5032 3.15618 17.0568 2.97761C16.7979 2.87939 16.4787 2.7968 16.0992 2.72984C15.7197 2.66288 15.2599 2.61823 14.7197 2.59591C14.1795 2.57359 13.7487 2.5602 13.4273 2.55573C13.1059 2.55127 12.6349 2.55127 12.0144 2.55573ZM21.2086 6.75439C21.2532 7.54011 21.2755 8.95529 21.2755 10.9999C21.2755 13.0446 21.2532 14.4598 21.2086 15.2455C21.1193 17.1026 20.5657 18.5401 19.5479 19.558C18.53 20.5758 17.0925 21.1294 15.2354 21.2187C14.4496 21.2633 13.0345 21.2856 10.9898 21.2856C8.94517 21.2856 7.52999 21.2633 6.74428 21.2187C4.88714 21.1294 3.44964 20.5758 2.43178 19.558C1.41392 18.5401 0.860352 17.1026 0.771066 15.2455C0.726423 14.4598 0.704102 13.0446 0.704102 10.9999C0.704102 8.95529 0.726423 7.54011 0.771066 6.75439C0.860352 4.89725 1.41392 3.45975 2.43178 2.44189C3.44964 1.42404 4.88714 0.870466 6.74428 0.781179C7.52999 0.736538 8.94517 0.714216 10.9898 0.714216C13.0345 0.714216 14.4496 0.736538 15.2354 0.781179C17.0925 0.870466 18.53 1.42404 19.5479 2.44189C20.5657 3.45975 21.1193 4.89725 21.2086 6.75439Z" fill="white"/>
</svg>
