<svg width="90" height="39" viewBox="0 0 90 39" fill="none" xmlns="http://www.w3.org/2000/svg">
<path d="M11.584 38.724C9.55733 38.724 7.72267 38.3827 6.08 37.7C4.45867 37.0173 3.17867 36.0253 2.24 34.724C1.28 33.4227 0.800001 31.8547 0.800001 30.02C0.800001 28.3133 1.13067 26.916 1.792 25.828C2.45333 24.7187 3.17867 23.8867 3.968 23.332C4.416 23.012 4.832 22.788 5.216 22.66C5.6 22.5107 5.856 22.436 5.984 22.436C6.112 22.436 6.176 22.4893 6.176 22.596C6.176 22.7027 6.12267 22.788 6.016 22.852C4.90667 23.5133 4.05333 24.452 3.456 25.668C2.88 26.884 2.592 28.2173 2.592 29.668C2.592 31.332 2.976 32.772 3.744 33.988C4.512 35.2253 5.57867 36.1747 6.944 36.836C8.30933 37.4973 9.888 37.828 11.68 37.828C14.7093 37.828 17.6 36.6333 20.352 34.244C23.104 31.8547 25.76 28.5267 28.32 24.26C29.28 22.6173 30.1867 20.9213 31.04 19.172C31.8933 17.4227 32.704 15.6947 33.472 13.988C34.24 12.324 34.9653 10.8307 35.648 9.508C36.352 8.164 36.96 7.03333 37.472 6.116C38.0053 5.19867 38.3893 4.55867 38.624 4.196C33.2267 4.92133 29.0453 6.07333 26.08 7.652C23.136 9.23067 21.664 11.2573 21.664 13.732C21.664 15.012 21.9947 15.972 22.656 16.612C23.3173 17.2307 24.0747 17.54 24.928 17.54C25.76 17.54 26.592 17.2733 27.424 16.74C28.2773 16.2067 28.9813 15.4707 29.536 14.532C30.112 13.572 30.4 12.4627 30.4 11.204C30.4 10.5853 30.208 10.084 29.824 9.7C29.824 9.48667 29.9307 9.38 30.144 9.38C30.4 9.38 30.624 9.572 30.816 9.956C31.0293 10.34 31.136 10.82 31.136 11.396C31.136 12.8253 30.7947 14.0627 30.112 15.108C29.4507 16.132 28.5973 16.9213 27.552 17.476C26.528 18.0307 25.472 18.308 24.384 18.308C23.552 18.308 22.7627 18.1267 22.016 17.764C21.2693 17.4013 20.6507 16.8467 20.16 16.1C19.6907 15.3533 19.456 14.4253 19.456 13.316C19.456 11.8653 19.936 10.6067 20.896 9.54C21.8773 8.452 23.2427 7.524 24.992 6.756C26.7627 5.988 28.8427 5.32667 31.232 4.772C33.6427 4.21733 36.288 3.73733 39.168 3.332C39.7653 2.5 40.3093 1.84933 40.8 1.38C41.312 0.910666 41.8667 0.675999 42.464 0.675999C42.8053 0.675999 43.072 0.761332 43.264 0.931999C43.4773 1.10267 43.584 1.35867 43.584 1.7C43.584 2.19067 43.3813 2.596 42.976 2.916C42.5707 3.21467 42.0587 3.46 41.44 3.652C40.8213 3.82267 40.2027 3.96133 39.584 4.068C38.7947 5.43333 38.1013 6.84133 37.504 8.292C36.928 9.72133 36.384 11.1933 35.872 12.708C35.3813 14.2013 34.848 15.7373 34.272 17.316C33.7173 18.8733 33.056 20.4733 32.288 22.116C30.688 25.508 28.8427 28.4413 26.752 30.916C24.6613 33.412 22.3467 35.332 19.808 36.676C17.2693 38.0413 14.528 38.724 11.584 38.724ZM40.16 3.268C41.0347 3.11867 41.6213 2.93733 41.92 2.724C42.2187 2.48933 42.368 2.276 42.368 2.084C42.368 1.828 42.24 1.7 41.984 1.7C41.7493 1.7 41.4613 1.88133 41.12 2.244C40.8 2.58533 40.48 2.92667 40.16 3.268ZM38.6458 26.628C37.8564 26.628 37.1418 26.372 36.5018 25.86C35.8831 25.348 35.5738 24.5693 35.5738 23.524C35.5738 22.564 35.8084 21.54 36.2778 20.452C36.7471 19.3427 37.3444 18.372 38.0698 17.54C38.6884 16.8147 39.3818 16.2173 40.1498 15.748C40.9178 15.2787 41.6431 15.044 42.3258 15.044C42.7951 15.044 43.2004 15.172 43.5418 15.428C43.9044 15.7053 44.0858 16.1 44.0858 16.612C44.0858 17.1453 43.8831 17.732 43.4778 18.372C43.0724 19.012 42.4964 19.6093 41.7498 20.164C41.4298 20.3987 41.0244 20.6227 40.5338 20.836C40.0431 21.0493 39.5524 21.2307 39.0618 21.38C38.5711 21.508 38.1658 21.572 37.8458 21.572C37.7391 21.828 37.6324 22.1693 37.5258 22.596C37.4404 23.0227 37.3978 23.46 37.3978 23.908C37.3978 24.4413 37.5044 24.9213 37.7178 25.348C37.9311 25.7747 38.3258 25.988 38.9018 25.988C39.6484 25.988 40.4164 25.7427 41.2058 25.252C41.9951 24.74 42.7418 24.1107 43.4458 23.364C44.1498 22.596 44.7364 21.8387 45.2058 21.092C45.4831 20.516 45.7604 19.9507 46.0378 19.396C46.3151 18.8413 46.5924 18.2973 46.8698 17.764C47.2964 16.996 47.6484 16.4627 47.9258 16.164C48.2244 15.844 48.6191 15.684 49.1098 15.684C49.2804 15.684 49.4618 15.716 49.6538 15.78C49.8458 15.8227 50.0378 15.844 50.2298 15.844C50.3578 15.844 50.4538 15.8333 50.5178 15.812C50.2191 15.9827 49.8351 16.4093 49.3658 17.092C48.8964 17.7533 48.4164 18.5213 47.9258 19.396C47.4351 20.2707 46.9978 21.092 46.6138 21.86C47.0191 21.3693 47.4351 20.8787 47.8618 20.388C48.3098 19.8973 48.8004 19.428 49.3338 18.98C49.8031 18.5747 50.2938 18.1373 50.8058 17.668C51.3391 17.1773 51.8618 16.7613 52.3738 16.42C52.8858 16.0787 53.3338 15.908 53.7178 15.908C53.8671 15.908 53.9631 15.9187 54.0058 15.94C54.4111 16.1107 54.6138 16.388 54.6138 16.772C54.6138 16.9 54.5604 17.092 54.4538 17.348C54.1764 18.0733 53.8138 18.82 53.3658 19.588C52.9391 20.3347 52.5338 21.092 52.1498 21.86C52.4698 21.476 52.8644 21.0067 53.3338 20.452C53.8244 19.8973 54.3151 19.4067 54.8058 18.98C55.2751 18.5533 55.8724 18.1053 56.5978 17.636C57.3231 17.1667 58.0378 16.7613 58.7418 16.42C59.4458 16.0787 60.0111 15.908 60.4378 15.908C60.5871 15.908 60.6938 15.9187 60.7578 15.94C60.7578 15.94 60.6404 16.1533 60.4058 16.58C60.1711 16.9853 59.8724 17.5293 59.5098 18.212C59.1684 18.8733 58.8164 19.588 58.4538 20.356C58.0911 21.1027 57.7604 21.828 57.4618 22.532C57.1844 23.2147 57.0031 23.7907 56.9178 24.26C56.8538 24.5373 56.8218 24.7933 56.8218 25.028C56.8218 25.3693 56.8858 25.5933 57.0138 25.7C57.1418 25.8067 57.2804 25.86 57.4298 25.86C57.8564 25.86 58.2724 25.6787 58.6778 25.316C59.1044 24.9533 59.5204 24.4947 59.9258 23.94C60.3311 23.364 60.6938 22.756 61.0138 22.116C61.3551 21.476 61.6431 20.8787 61.8778 20.324C62.1338 20.324 62.2618 20.42 62.2618 20.612C62.0271 21.188 61.7284 21.828 61.3658 22.532C61.0244 23.2147 60.6298 23.8653 60.1818 24.484C59.7338 25.1027 59.2431 25.6147 58.7098 26.02C58.1764 26.4253 57.6004 26.628 56.9818 26.628C56.5338 26.628 56.1071 26.4787 55.7018 26.18C55.3178 25.8813 55.1258 25.3267 55.1258 24.516C55.1258 23.6413 55.3284 22.7667 55.7338 21.892C56.1604 21.0173 56.5978 20.2173 57.0458 19.492C57.2591 19.1293 57.3658 18.8413 57.3658 18.628C57.3658 18.372 57.2378 18.244 56.9818 18.244C56.7684 18.244 56.4698 18.3507 56.0858 18.564C55.7231 18.7773 55.2644 19.1507 54.7098 19.684C54.3684 20.004 53.9631 20.452 53.4938 21.028C53.0458 21.5827 52.5871 22.1907 52.1178 22.852C51.6484 23.5133 51.2431 24.164 50.9018 24.804C50.5604 25.444 50.3364 26.0093 50.2298 26.5C49.9098 26.5 49.6538 26.372 49.4618 26.116C49.2698 25.8387 49.1738 25.5187 49.1738 25.156C49.1738 25.092 49.1738 25.028 49.1738 24.964C49.1738 24.9 49.1844 24.8253 49.2058 24.74C49.3124 24.0787 49.4831 23.524 49.7178 23.076C49.9524 22.6067 50.2191 22.0627 50.5178 21.444C50.6671 21.1667 50.8378 20.8467 51.0298 20.484C51.2218 20.1 51.3924 19.7373 51.5418 19.396C51.6911 19.0333 51.7658 18.7347 51.7658 18.5C51.7658 18.2867 51.6804 18.18 51.5098 18.18C51.3178 18.18 51.0618 18.276 50.7418 18.468C50.4431 18.66 50.1551 18.884 49.8778 19.14C49.6004 19.3747 49.3871 19.556 49.2378 19.684C48.7044 20.196 48.0538 20.932 47.2858 21.892C46.5391 22.852 45.7178 24.2173 44.8218 25.988C44.6938 26.2227 44.5444 26.372 44.3738 26.436C44.2031 26.4787 43.9364 26.5 43.5738 26.5C43.3391 26.5 43.1364 26.5 42.9658 26.5C42.8164 26.5213 42.6564 26.5747 42.4858 26.66L43.9258 23.78C43.2004 24.5693 42.3791 25.2413 41.4618 25.796C40.5658 26.3507 39.6271 26.628 38.6458 26.628ZM38.0698 20.996C38.3684 20.996 38.8698 20.8893 39.5738 20.676C40.2778 20.4413 40.9178 20.0787 41.4938 19.588C42.0484 19.0973 42.4751 18.564 42.7738 17.988C43.0724 17.3907 43.2218 16.8893 43.2218 16.484C43.2218 16.0147 43.0511 15.78 42.7098 15.78C42.4538 15.78 42.1018 15.9507 41.6538 16.292C41.2058 16.6333 40.6511 17.2093 39.9898 18.02C39.5844 18.532 39.2004 19.0867 38.8378 19.684C38.4751 20.2813 38.2191 20.7187 38.0698 20.996ZM69.457 26.596C68.9663 26.596 68.529 26.4573 68.145 26.18C67.7823 25.9027 67.601 25.3373 67.601 24.484C67.601 24.1213 67.6223 23.78 67.665 23.46C67.729 23.14 67.8037 22.7987 67.889 22.436C67.697 22.756 67.4303 23.1507 67.089 23.62C66.7477 24.0893 66.3637 24.548 65.937 24.996C65.5317 25.444 65.105 25.8173 64.657 26.116C64.2303 26.4147 63.825 26.564 63.441 26.564C62.8863 26.564 62.4383 26.3187 62.097 25.828C61.7557 25.316 61.585 24.6547 61.585 23.844C61.585 22.9693 61.7877 22.0307 62.193 21.028C62.5983 20.0253 63.153 19.0653 63.857 18.148C64.561 17.2307 65.3717 16.484 66.289 15.908C67.2063 15.332 68.1663 15.044 69.169 15.044C69.6597 15.044 70.129 15.1293 70.577 15.3C71.025 15.4493 71.4197 15.7053 71.761 16.068C71.9103 16.2173 71.985 16.388 71.985 16.58C71.985 16.708 71.9317 16.8147 71.825 16.9C71.7183 16.9853 71.5797 17.0067 71.409 16.964C71.1743 16.2173 70.673 15.844 69.905 15.844C69.5423 15.844 69.1263 15.9613 68.657 16.196C68.081 16.4947 67.4623 16.9747 66.801 17.636C66.161 18.276 65.553 19.012 64.977 19.844C64.4223 20.6547 63.9637 21.476 63.601 22.308C63.2383 23.14 63.057 23.8973 63.057 24.58C63.057 25.284 63.3237 25.636 63.857 25.636C64.3263 25.636 64.8063 25.412 65.297 24.964C65.809 24.516 66.289 23.9613 66.737 23.3C67.2063 22.6173 67.633 21.9453 68.017 21.284C68.401 20.6227 68.6997 20.0893 68.913 19.684C69.233 19.108 69.5317 18.628 69.809 18.244C70.0863 17.86 70.481 17.668 70.993 17.668C71.2277 17.668 71.4623 17.7 71.697 17.764C71.9317 17.828 72.177 17.8387 72.433 17.796C71.793 18.436 71.2277 19.1933 70.737 20.068C70.2677 20.9427 69.905 21.8067 69.649 22.66C69.393 23.492 69.265 24.196 69.265 24.772C69.265 25.412 69.4783 25.732 69.905 25.732C70.2463 25.732 70.609 25.54 70.993 25.156C71.3983 24.772 71.7823 24.292 72.145 23.716C72.529 23.1187 72.881 22.5213 73.201 21.924C73.521 21.3053 73.777 20.772 73.969 20.324C74.0757 20.324 74.161 20.3347 74.225 20.356C74.3103 20.3773 74.353 20.4627 74.353 20.612C74.3317 20.6973 74.289 20.7933 74.225 20.9C74.1823 20.9853 74.1077 21.1453 74.001 21.38C73.8303 21.7213 73.5957 22.18 73.297 22.756C72.9983 23.332 72.6463 23.9187 72.241 24.516C71.8357 25.092 71.3983 25.5827 70.929 25.988C70.4597 26.3933 69.969 26.596 69.457 26.596ZM74.6537 20.228C74.8244 19.8653 75.0484 19.2893 75.3257 18.5C75.6031 17.6893 75.8911 16.7933 76.1897 15.812C76.4884 14.8307 76.7124 13.9027 76.8617 13.028C76.9257 12.6867 77.0431 12.4413 77.2137 12.292C77.3844 12.1213 77.5657 12.036 77.7577 12.036C78.0351 12.036 78.2911 12.1747 78.5257 12.452C78.7604 12.708 78.8777 13.0813 78.8777 13.572C78.8777 14.1693 78.6964 14.6813 78.3337 15.108C77.9924 15.5347 77.5657 15.94 77.0537 16.324C77.2671 16.3453 77.4911 16.3667 77.7257 16.388C77.9604 16.388 78.2164 16.388 78.4937 16.388C79.4964 16.388 80.4884 16.324 81.4697 16.196C81.5124 16.324 81.5337 16.42 81.5337 16.484C81.5337 16.7613 81.4484 17.1133 81.2778 17.54C81.1284 17.9667 80.9684 18.3507 80.7977 18.692C80.7124 18.884 80.5417 19.236 80.2857 19.748C80.0297 20.2387 79.7524 20.804 79.4537 21.444C79.1551 22.0627 78.8991 22.6813 78.6857 23.3C78.4937 23.8973 78.3977 24.4093 78.3977 24.836C78.3977 25.3907 78.6111 25.668 79.0377 25.668C79.4431 25.668 80.0084 25.1987 80.7337 24.26C81.4591 23.3 82.1844 21.988 82.9097 20.324C83.1657 20.324 83.2937 20.42 83.2937 20.612C83.0591 21.188 82.7604 21.8173 82.3977 22.5C82.0564 23.1827 81.6724 23.8333 81.2457 24.452C80.8191 25.0493 80.3604 25.5507 79.8697 25.956C79.3791 26.34 78.8671 26.532 78.3337 26.532C77.9284 26.532 77.5231 26.372 77.1177 26.052C76.7124 25.7107 76.5097 25.1667 76.5097 24.42C76.5097 23.7587 76.6377 23.1187 76.8937 22.5C77.1497 21.86 77.4377 21.2627 77.7577 20.708C78.0777 20.1533 78.3657 19.6627 78.6217 19.236C78.8777 18.8093 79.0057 18.468 79.0057 18.212C79.0057 17.828 78.7604 17.5507 78.2697 17.38C77.8004 17.2093 77.1817 17.1133 76.4137 17.092C76.0297 18.0733 75.7417 18.7987 75.5497 19.268C75.3577 19.7373 75.1764 20.1853 75.0057 20.612C74.6644 20.612 74.5471 20.484 74.6537 20.228ZM84.439 26.5C83.6497 26.5 83.095 26.276 82.775 25.828C82.455 25.3587 82.295 24.8253 82.295 24.228C82.295 23.908 82.327 23.588 82.391 23.268C82.4763 22.9267 82.5723 22.6173 82.679 22.34L84.823 16.868C84.887 16.6973 84.919 16.548 84.919 16.42C84.919 16.2067 84.8657 16.0253 84.759 15.876C84.6523 15.7053 84.5777 15.588 84.535 15.524L86.295 15.46C86.615 15.4387 86.839 15.4813 86.967 15.588C87.1163 15.6733 87.191 15.78 87.191 15.908C87.191 16.036 87.1163 16.2707 86.967 16.612C86.7537 17.124 86.4657 17.764 86.103 18.532C85.7403 19.3 85.3777 20.0893 85.015 20.9C84.6737 21.7107 84.375 22.468 84.119 23.172C83.8843 23.876 83.767 24.42 83.767 24.804C83.767 25.0813 83.831 25.316 83.959 25.508C84.1083 25.7 84.3537 25.796 84.695 25.796C85.143 25.796 85.5803 25.6253 86.007 25.284C86.455 24.9213 86.871 24.4627 87.255 23.908C87.639 23.3533 87.991 22.756 88.311 22.116C88.6523 21.476 88.9403 20.8787 89.175 20.324C89.431 20.324 89.559 20.42 89.559 20.612C89.3457 21.1453 89.0683 21.7533 88.727 22.436C88.3857 23.1187 87.991 23.7693 87.543 24.388C87.1163 24.9853 86.6363 25.4867 86.103 25.892C85.591 26.2973 85.0363 26.5 84.439 26.5ZM87.287 13.476C87.0097 13.476 86.7643 13.3693 86.551 13.156C86.359 12.9427 86.263 12.6867 86.263 12.388C86.263 12.0253 86.4123 11.7053 86.711 11.428C87.0097 11.1293 87.3403 10.98 87.703 10.98C88.0017 10.98 88.2577 11.076 88.471 11.268C88.6843 11.46 88.791 11.7053 88.791 12.004C88.791 12.388 88.6417 12.7293 88.343 13.028C88.0443 13.3267 87.6923 13.476 87.287 13.476Z" fill="white"/>
</svg>
