<svg width="48" height="48" viewBox="0 0 48 48" fill="none" xmlns="http://www.w3.org/2000/svg">
<rect width="48" height="48" rx="13.7143" fill="white"/>
<rect x="6.85742" y="6.85742" width="34.2857" height="34.2857" rx="13.7143" fill="url(#paint0_linear_928_435)"/>
<path d="M24.5156 26.9194H23.4414V25.8452H24.5156V26.9194ZM23.96 20.5737C24.2293 20.568 24.4879 20.5997 24.7344 20.6685C24.9862 20.7372 25.1953 20.8428 25.3613 20.9858C25.5333 21.1234 25.6314 21.3043 25.6543 21.5278C25.6715 21.6939 25.6449 21.8198 25.5762 21.9058C25.5132 21.9859 25.4332 22.0432 25.3359 22.0776C25.2442 22.1063 25.1604 22.1237 25.0859 22.1294H24.9746C24.7798 22.1294 24.6305 22.1069 24.5273 22.061C24.4243 22.0095 24.3495 21.9522 24.3037 21.8892C24.2803 21.8524 24.2646 21.8166 24.2529 21.7837H23.4414V21.728C23.4156 21.7931 23.3976 21.8661 23.3926 21.9487C23.3811 22.1379 23.4302 22.3014 23.5391 22.439C23.6479 22.5765 23.8628 22.6481 24.1836 22.6538C24.3441 22.6538 24.5137 22.6763 24.6914 22.7222C24.8689 22.768 25.0349 22.8428 25.1895 22.9458C25.3498 23.0432 25.4757 23.1783 25.5674 23.3501C25.6648 23.5163 25.7139 23.7259 25.7139 23.978C25.7081 24.4822 25.5732 24.8719 25.3096 25.147C25.046 25.4219 24.6079 25.56 23.9951 25.5601C23.5883 25.5601 23.2611 25.511 23.0146 25.4136C22.7682 25.3104 22.5873 25.1898 22.4727 25.0522C22.364 24.915 22.3066 24.7918 22.3008 24.6831C22.2951 24.5743 22.3012 24.4679 22.3184 24.3647C22.3413 24.2616 22.4016 24.1726 22.499 24.0981C22.6022 24.0237 22.7658 23.9776 22.9893 23.9604C23.2182 23.9433 23.3811 23.9638 23.4785 24.021C23.5759 24.0726 23.6363 24.1329 23.6592 24.2017C23.6878 24.2703 23.7021 24.3134 23.7021 24.3306C23.7022 24.348 23.7083 24.3911 23.7197 24.4595C23.7369 24.5223 23.7657 24.5851 23.8057 24.6479C23.8515 24.7053 23.9149 24.7339 23.9951 24.7339C24.1151 24.7338 24.2179 24.6855 24.3037 24.5884C24.3896 24.491 24.4448 24.3333 24.4678 24.1157C24.5079 23.6859 24.2922 23.4702 23.8223 23.4702C23.7078 23.4702 23.559 23.4537 23.376 23.4194C23.1983 23.3793 23.0204 23.3098 22.8428 23.2124C22.6651 23.1092 22.5159 22.9661 22.3955 22.7827C22.2753 22.5994 22.218 22.3588 22.2236 22.061C22.2294 21.763 22.2836 21.5187 22.3867 21.3296C22.4898 21.1349 22.625 20.9864 22.791 20.8833C22.9629 20.7745 23.1491 20.6967 23.3496 20.6509C23.5558 20.6051 23.7595 20.5795 23.96 20.5737Z" fill="white"/>
<path d="M30.0948 27.3847H27.2962C29.2826 25.0006 28.8102 22.7261 27.3912 21.1658C25.9769 19.6108 23.686 19.4431 21.5841 19.4431H16.4517V20.1971C16.4517 20.5433 16.0625 20.7466 15.7784 20.5489L12.9785 18.6012C12.7217 18.4226 12.7365 18.038 13.0063 17.8797L15.8062 16.2363C16.0919 16.0686 16.4517 16.2746 16.4517 16.6059V17.5191C35.4296 14.4581 30.0948 27.3847 30.0948 27.3847Z" fill="white"/>
<path d="M17.9296 20.6671H20.7282C18.7418 23.0511 19.2142 25.3257 20.6333 26.8859C22.0475 28.4409 24.3384 28.6087 26.4403 28.6087H31.5727V27.8547C31.5727 27.5085 31.9619 27.3052 32.2461 27.5028L35.046 29.4506C35.3027 29.6292 35.2879 30.0137 35.0182 30.172L32.2183 31.8154C31.9326 31.9831 31.5727 31.7771 31.5727 31.4458V30.5327C12.5948 33.5936 17.9296 20.6671 17.9296 20.6671Z" fill="white"/>
<defs>
<linearGradient id="paint0_linear_928_435" x1="24.0003" y1="6.85742" x2="24.0003" y2="41.1431" gradientUnits="userSpaceOnUse">
<stop stop-color="#00F3F6"/>
<stop offset="1" stop-color="#058CF9"/>
</linearGradient>
</defs>
</svg>
