<svg width="120" height="120" viewBox="0 0 120 120" fill="none" xmlns="http://www.w3.org/2000/svg">
<rect width="120" height="120" rx="34.2857" fill="white"/>
<rect x="17.1426" y="17.1429" width="85.7143" height="85.7143" rx="34.2857" fill="url(#paint0_linear_942_409)"/>
<path d="M61.292 53.0446C61.4757 53.0788 61.657 53.1207 61.8359 53.1706C62.4664 53.3425 62.9898 53.6073 63.4053 53.9655C63.835 54.3093 64.0784 54.7605 64.1357 55.319C64.1787 55.7345 64.1143 56.0504 63.9424 56.2653C63.7848 56.4658 63.5843 56.6091 63.3408 56.695C63.1117 56.7666 62.904 56.8096 62.7178 56.8239H62.4385C61.9513 56.8239 61.5782 56.7667 61.3203 56.652C61.0626 56.5231 60.8763 56.3799 60.7617 56.2224C60.6615 56.0649 60.6042 55.9215 60.5898 55.7927C60.5755 55.6494 60.5684 55.5625 60.5684 55.5339C60.5682 55.4622 60.5396 55.3474 60.4824 55.1901C60.4394 55.0184 60.296 54.9324 60.0527 54.9323C59.6516 54.9323 59.2928 55.054 58.9775 55.2975C58.6767 55.5411 58.5121 55.8999 58.4834 56.3727C58.4548 56.8453 58.5766 57.2536 58.8486 57.5974C59.1209 57.9412 59.6586 58.1201 60.4609 58.1345C60.862 58.1345 61.2845 58.1918 61.7285 58.3063C62.1727 58.421 62.5887 58.608 62.9756 58.8659C63.3766 59.1095 63.6917 59.446 63.9209 59.8757C64.1645 60.2912 64.2861 60.8146 64.2861 61.445C64.2717 62.7057 63.9354 63.6802 63.2764 64.3679C62.8223 64.8415 62.1607 65.1511 61.292 65.2985V67.2966H58.6055V65.3054C58.2002 65.2445 57.8443 65.1549 57.5381 65.0339C56.922 64.776 56.4702 64.4754 56.1836 64.1315C55.9114 63.7877 55.7682 63.479 55.7539 63.2067C55.7396 62.9346 55.7539 62.6696 55.7969 62.4118C55.8542 62.154 56.0047 61.932 56.248 61.7458C56.5059 61.5595 56.9148 61.445 57.4736 61.402C58.0466 61.3591 58.4547 61.4092 58.6982 61.5524C58.9418 61.6814 59.0921 61.8317 59.1494 62.0036C59.2211 62.1755 59.2578 62.2829 59.2578 62.3259C59.2578 62.3689 59.2721 62.4763 59.3008 62.6481C59.3438 62.8057 59.4154 62.9632 59.5156 63.1208C59.6302 63.264 59.7877 63.3356 59.9883 63.3356C60.2891 63.3356 60.5469 63.2139 60.7617 62.9704C60.9766 62.7269 61.1126 62.333 61.1699 61.7888C61.2702 60.7143 60.7332 60.1766 59.5586 60.1765C59.272 60.1765 58.8989 60.1335 58.4404 60.0475C57.9964 59.9473 57.5524 59.7754 57.1084 59.5319C56.6643 59.2741 56.2911 58.9161 55.9902 58.4577C55.6894 57.9992 55.5462 57.397 55.5605 56.652C55.5749 55.907 55.7108 55.2977 55.9688 54.8249C56.2266 54.3378 56.564 53.9656 56.9795 53.7077C57.4092 53.4356 57.8747 53.2422 58.376 53.1276C58.4524 53.1106 58.5293 53.0965 58.6055 53.0817V51.7731H61.292V53.0446Z" fill="white"/>
<path d="M75.2374 68.461H68.241C73.2069 62.5009 72.0259 56.8146 68.4784 52.9139C64.9428 49.0264 59.2156 48.6071 53.9607 48.6071H41.1297V50.4921C41.1297 51.3575 40.1568 51.8658 39.4464 51.3716L32.4466 46.5022C31.8048 46.0557 31.8419 45.0944 32.5161 44.6987L39.5159 40.5901C40.2301 40.1709 41.1297 40.6859 41.1297 41.5141V43.797C88.5744 36.1447 75.2374 68.461 75.2374 68.461Z" fill="white"/>
<path d="M44.8251 51.6678H51.8215C46.8556 57.6279 48.0366 63.3142 51.5841 67.2149C55.1197 71.1024 60.8469 71.5217 66.1018 71.5217H78.9328V69.6367C78.9328 68.7713 79.9057 68.263 80.6161 68.7572L87.6159 73.6266C88.2577 74.073 88.2206 75.0344 87.5464 75.4301L80.5466 79.5387C79.8324 79.9579 78.9328 79.4429 78.9328 78.6147V76.3318C31.4881 83.9841 44.8251 51.6678 44.8251 51.6678Z" fill="white"/>
<defs>
<linearGradient id="paint0_linear_942_409" x1="59.9997" y1="17.1429" x2="59.9997" y2="102.857" gradientUnits="userSpaceOnUse">
<stop stop-color="#00F3F6"/>
<stop offset="1" stop-color="#058CF9"/>
</linearGradient>
</defs>
</svg>
