<svg width="335" height="335" viewBox="0 0 335 335" fill="none" xmlns="http://www.w3.org/2000/svg">
<g filter="url(#filter0_d_213_487)">
<rect x="107.5" y="81.5" width="120" height="120" rx="34.2857" fill="white" shape-rendering="crispEdges"/>
<g filter="url(#filter1_d_213_487)">
<rect x="124.643" y="98.6429" width="85.7143" height="85.7143" rx="34.2857" fill="url(#paint0_linear_213_487)"/>
</g>
<path d="M168.792 134.545C168.976 134.579 169.158 134.621 169.337 134.671C169.967 134.843 170.491 135.107 170.906 135.466C171.336 135.809 171.579 136.261 171.637 136.819C171.68 137.235 171.615 137.55 171.443 137.765C171.286 137.966 171.085 138.109 170.842 138.195C170.613 138.267 170.404 138.31 170.218 138.324H169.938C169.452 138.324 169.079 138.267 168.821 138.152C168.564 138.023 168.377 137.88 168.263 137.722C168.163 137.565 168.105 137.421 168.091 137.293C168.076 137.149 168.069 137.063 168.069 137.034C168.069 136.962 168.041 136.847 167.983 136.69C167.94 136.518 167.797 136.432 167.554 136.432C167.153 136.432 166.794 136.554 166.479 136.798C166.178 137.041 166.013 137.4 165.984 137.873C165.956 138.345 166.078 138.754 166.35 139.097C166.622 139.441 167.16 139.62 167.962 139.634C168.363 139.634 168.786 139.692 169.229 139.806C169.674 139.921 170.09 140.108 170.477 140.366C170.878 140.609 171.193 140.946 171.422 141.376C171.665 141.791 171.787 142.315 171.787 142.945C171.773 144.206 171.436 145.18 170.777 145.868C170.323 146.342 169.661 146.651 168.792 146.799V148.797H166.105V146.805C165.701 146.744 165.345 146.655 165.039 146.534C164.423 146.276 163.971 145.975 163.685 145.632C163.412 145.288 163.269 144.979 163.255 144.707C163.241 144.435 163.255 144.17 163.298 143.912C163.355 143.654 163.506 143.432 163.749 143.246C164.007 143.06 164.416 142.945 164.975 142.902C165.548 142.859 165.956 142.909 166.199 143.052C166.443 143.181 166.593 143.332 166.65 143.504C166.722 143.675 166.758 143.783 166.758 143.826C166.758 143.869 166.772 143.976 166.801 144.148C166.844 144.306 166.915 144.463 167.016 144.621C167.13 144.764 167.288 144.836 167.488 144.836C167.789 144.836 168.048 144.714 168.263 144.47C168.477 144.227 168.614 143.833 168.671 143.289C168.771 142.214 168.233 141.676 167.059 141.676C166.772 141.676 166.4 141.633 165.941 141.548C165.497 141.447 165.053 141.275 164.608 141.032C164.164 140.774 163.792 140.416 163.491 139.958C163.19 139.499 163.047 138.897 163.062 138.152C163.076 137.407 163.212 136.798 163.47 136.325C163.728 135.838 164.064 135.466 164.479 135.208C164.909 134.935 165.375 134.742 165.877 134.628C165.953 134.611 166.03 134.596 166.105 134.582V133.273H168.792V134.545Z" fill="white"/>
<path d="M182.737 149.961H175.741C180.707 144.001 179.526 138.315 175.978 134.414C172.443 130.526 166.716 130.107 161.461 130.107H148.63V131.992C148.63 132.857 147.657 133.366 146.946 132.872L139.947 128.002C139.305 127.556 139.342 126.594 140.016 126.199L147.016 122.09C147.73 121.671 148.63 122.186 148.63 123.014V125.297C196.074 117.645 182.737 149.961 182.737 149.961Z" fill="white"/>
<path d="M152.325 133.168H159.322C154.356 139.128 155.537 144.814 159.084 148.715C162.62 152.602 168.347 153.022 173.602 153.022H186.433V151.137C186.433 150.271 187.406 149.763 188.116 150.257L195.116 155.127C195.758 155.573 195.721 156.534 195.046 156.93L188.047 161.039C187.332 161.458 186.433 160.943 186.433 160.115V157.832C138.988 165.484 152.325 133.168 152.325 133.168Z" fill="white"/>
</g>
<defs>
<filter id="filter0_d_213_487" x="0.357147" y="0.0714321" width="334.286" height="334.286" filterUnits="userSpaceOnUse" color-interpolation-filters="sRGB">
<feFlood flood-opacity="0" result="BackgroundImageFix"/>
<feColorMatrix in="SourceAlpha" type="matrix" values="0 0 0 0 0 0 0 0 0 0 0 0 0 0 0 0 0 0 127 0" result="hardAlpha"/>
<feOffset dy="25.7143"/>
<feGaussianBlur stdDeviation="53.5714"/>
<feComposite in2="hardAlpha" operator="out"/>
<feColorMatrix type="matrix" values="0 0 0 0 0.0196078 0 0 0 0 0.54902 0 0 0 0 0.976471 0 0 0 0.12 0"/>
<feBlend mode="normal" in2="BackgroundImageFix" result="effect1_dropShadow_213_487"/>
<feBlend mode="normal" in="SourceGraphic" in2="effect1_dropShadow_213_487" result="shape"/>
</filter>
<filter id="filter1_d_213_487" x="120.357" y="98.6429" width="94.2863" height="94.2857" filterUnits="userSpaceOnUse" color-interpolation-filters="sRGB">
<feFlood flood-opacity="0" result="BackgroundImageFix"/>
<feColorMatrix in="SourceAlpha" type="matrix" values="0 0 0 0 0 0 0 0 0 0 0 0 0 0 0 0 0 0 127 0" result="hardAlpha"/>
<feOffset dy="4.28571"/>
<feGaussianBlur stdDeviation="2.14286"/>
<feComposite in2="hardAlpha" operator="out"/>
<feColorMatrix type="matrix" values="0 0 0 0 0.0196078 0 0 0 0 0.54902 0 0 0 0 0.976471 0 0 0 0.42 0"/>
<feBlend mode="normal" in2="BackgroundImageFix" result="effect1_dropShadow_213_487"/>
<feBlend mode="normal" in="SourceGraphic" in2="effect1_dropShadow_213_487" result="shape"/>
</filter>
<linearGradient id="paint0_linear_213_487" x1="167.5" y1="98.6429" x2="167.5" y2="184.357" gradientUnits="userSpaceOnUse">
<stop stop-color="#00F3F6"/>
<stop offset="1" stop-color="#058CF9"/>
</linearGradient>
</defs>
</svg>
