<svg width="48" height="48" viewBox="0 0 48 48" fill="none" xmlns="http://www.w3.org/2000/svg">
<rect width="48" height="48" rx="13.7143" fill="white"/>
<rect x="6.85742" y="6.85742" width="34.2857" height="34.2857" rx="13.7143" fill="url(#paint0_linear_928_444)"/>
<path d="M18.3965 28.8258C18.3965 30.7194 19.9315 32.2544 21.8251 32.2544H28.8735C29.4433 32.2544 29.9053 32.7163 29.9053 33.2861V33.2861C29.9053 33.8559 29.4433 34.3179 28.8735 34.3179H19.286C17.3924 34.3179 15.8574 32.7828 15.8574 30.8893V17.1743C15.8574 16.4732 16.4258 15.9048 17.127 15.9048V15.9048C17.8281 15.9048 18.3965 16.4732 18.3965 17.1743V28.8258Z" fill="white"/>
<path d="M33 28.2702C33 30.1637 31.465 31.6987 29.5714 31.6987H22.3807C20.4872 31.6987 18.9521 30.1637 18.9521 28.2702V16.7142C18.9521 14.8207 20.4872 13.2856 22.3807 13.2856H29.5714C31.465 13.2856 33 14.8207 33 16.7142V28.2702ZM20.3809 27.8096C20.3809 27.9409 20.4873 28.0474 20.6187 28.0474H26.2544C26.3857 28.0474 26.4922 27.9409 26.4922 27.8096V27.8096C26.4922 27.6782 26.3857 27.5718 26.2544 27.5718H20.6187C20.4873 27.5718 20.3809 27.6782 20.3809 27.8096V27.8096ZM20.6191 26.2222C20.4875 26.2222 20.3809 26.3289 20.3809 26.4604V26.4604C20.3809 26.592 20.4875 26.6987 20.6191 26.6987H31.4121C31.5437 26.6987 31.6504 26.592 31.6504 26.4604V26.4604C31.6504 26.3289 31.5437 26.2222 31.4121 26.2222H20.6191ZM20.3809 25.1113C20.3809 25.2427 20.4873 25.3491 20.6187 25.3491H27.9204C28.0517 25.3491 28.1582 25.2427 28.1582 25.1113V25.1113C28.1582 24.98 28.0517 24.8735 27.9204 24.8735H20.6187C20.4873 24.8735 20.3809 24.98 20.3809 25.1113V25.1113ZM20.3809 23.7622C20.3809 23.8938 20.4875 24.0005 20.6191 24.0005H30.0635C30.1951 24.0005 30.3018 23.8938 30.3018 23.7622V23.7622C30.3018 23.6306 30.1951 23.5239 30.0635 23.5239H20.6191C20.4875 23.5239 20.3809 23.6306 20.3809 23.7622V23.7622ZM20.3809 22.2539C20.3809 22.3852 20.4873 22.4917 20.6187 22.4917H30.6196C30.751 22.4917 30.8574 22.3852 30.8574 22.2539V22.2539C30.8574 22.1226 30.751 22.0161 30.6196 22.0161H20.6187C20.4873 22.0161 20.3809 22.1226 20.3809 22.2539V22.2539ZM20.3809 20.5083C20.3809 20.6399 20.4875 20.7466 20.6191 20.7466H28.7139C28.8455 20.7466 28.9521 20.6399 28.9521 20.5083V20.5083C28.9521 20.3767 28.8455 20.27 28.7139 20.27H20.6191C20.4875 20.27 20.3809 20.3767 20.3809 20.5083V20.5083Z" fill="white"/>
<path d="M31.492 17.0556C31.492 18.261 30.5149 19.2381 29.3095 19.2381C28.1041 19.2381 27.127 18.261 27.127 17.0556C27.127 15.8502 28.1041 14.873 29.3095 14.873C30.5149 14.873 31.492 15.8502 31.492 17.0556ZM27.8566 17.0556C27.8566 17.858 28.5071 18.5084 29.3095 18.5084C30.1119 18.5084 30.7623 17.858 30.7623 17.0556C30.7623 16.2532 30.1119 15.6027 29.3095 15.6027C28.5071 15.6027 27.8566 16.2532 27.8566 17.0556Z" fill="#FEB826"/>
<path d="M31.492 17.0556C31.492 17.4622 31.3784 17.8607 31.1641 18.2062C30.9497 18.5517 30.6431 18.8305 30.2788 19.0111C29.9145 19.1916 29.507 19.2669 29.1022 19.2283C28.6975 19.1896 28.3115 19.0387 27.9879 18.7925C27.6643 18.5463 27.416 18.2146 27.2708 17.8348C27.1256 17.455 27.0894 17.0422 27.1663 16.6429C27.2432 16.2437 27.4301 15.8738 27.7059 15.5751C27.9817 15.2763 28.3355 15.0606 28.7274 14.9521L28.922 15.6554C28.6611 15.7276 28.4256 15.8712 28.242 16.07C28.0584 16.2689 27.934 16.5151 27.8828 16.7809C27.8317 17.0467 27.8558 17.3215 27.9524 17.5743C28.049 17.8271 28.2144 18.0479 28.4298 18.2118C28.6452 18.3757 28.9021 18.4762 29.1715 18.5019C29.441 18.5276 29.7122 18.4775 29.9547 18.3573C30.1972 18.2371 30.4013 18.0515 30.544 17.8215C30.6867 17.5915 30.7623 17.3262 30.7623 17.0556H31.492Z" fill="#F6625F"/>
<path d="M31.492 17.0556C31.492 17.5954 31.292 18.116 30.9306 18.5169C30.5692 18.9179 30.072 19.1706 29.5351 19.2264C28.9982 19.2822 28.4597 19.1371 28.0235 18.819C27.5874 18.501 27.2846 18.0326 27.1736 17.5044L27.8877 17.3543C27.9616 17.706 28.1632 18.0178 28.4535 18.2295C28.7438 18.4412 29.1023 18.5378 29.4597 18.5006C29.8171 18.4635 30.148 18.2952 30.3886 18.0284C30.6292 17.7615 30.7623 17.4149 30.7623 17.0556H31.492Z" fill="#A984FF"/>
<path d="M31.492 17.0556C31.492 17.5931 31.2937 18.1117 30.935 18.512C30.5764 18.9123 30.0826 19.1662 29.5484 19.225L29.4685 18.4997C29.8241 18.4605 30.1528 18.2915 30.3916 18.0251C30.6303 17.7586 30.7623 17.4134 30.7623 17.0556H31.492Z" fill="#08CBF7"/>
<defs>
<linearGradient id="paint0_linear_928_444" x1="24.0003" y1="6.85742" x2="24.0003" y2="41.1431" gradientUnits="userSpaceOnUse">
<stop stop-color="#BC9BFF"/>
<stop offset="1" stop-color="#6E3EFE"/>
</linearGradient>
</defs>
</svg>
