<svg width="112" height="112" viewBox="0 0 112 112" fill="none" xmlns="http://www.w3.org/2000/svg">
<rect width="112" height="112" rx="32" fill="white"/>
<rect x="16" y="16" width="80" height="80" rx="32" fill="url(#paint0_linear_926_343)"/>
<path d="M42.9258 67.2595C42.9258 71.6778 46.5075 75.2595 50.9258 75.2595H67.3701C68.6996 75.2595 69.7773 76.3373 69.7773 77.6667C69.7773 78.9962 68.6996 80.074 67.3701 80.074H45C40.5817 80.074 37 76.4923 37 72.074V40.074C37 38.4376 38.3265 37.1111 39.9629 37.1111C41.5992 37.1111 42.9258 38.4376 42.9258 40.074V67.2595Z" fill="white"/>
<path d="M77 65.9629C77 70.3812 73.4183 73.9629 69 73.9629H52.2227C47.8044 73.9629 44.2227 70.3812 44.2227 65.9629V39C44.2227 34.5817 47.8044 31 52.2227 31H69C73.4183 31 77 34.5817 77 39V65.9629ZM47.5557 64.8887C47.5557 65.1956 47.8044 65.4443 48.1113 65.4443H61.2588C61.5657 65.4443 61.8145 65.1956 61.8145 64.8887C61.8145 64.5818 61.5657 64.333 61.2588 64.333H48.1113C47.8044 64.333 47.5557 64.5818 47.5557 64.8887ZM48.1108 61.1855C47.8042 61.1855 47.5557 61.4341 47.5557 61.7407C47.5557 62.0473 47.8042 62.2959 48.1108 62.2959H73.2964C73.603 62.2959 73.8516 62.0473 73.8516 61.7407C73.8516 61.4341 73.603 61.1855 73.2964 61.1855H48.1108ZM47.5557 58.5928C47.5557 58.8997 47.8044 59.1484 48.1113 59.1484H65.1484C65.4553 59.1484 65.7041 58.8997 65.7041 58.5928C65.7041 58.2859 65.4553 58.0371 65.1484 58.0371H48.1113C47.8044 58.0371 47.5557 58.2859 47.5557 58.5928ZM47.5557 55.4443C47.5557 55.7512 47.8044 56 48.1113 56H70.1484C70.4553 56 70.7041 55.7512 70.7041 55.4443C70.7041 55.1375 70.4553 54.8887 70.1484 54.8887H48.1113C47.8044 54.8887 47.5557 55.1375 47.5557 55.4443ZM47.5557 51.9258C47.5557 52.2327 47.8044 52.4814 48.1113 52.4814H71.4443C71.7512 52.4814 72 52.2327 72 51.9258C72 51.6189 71.7512 51.3701 71.4443 51.3701H48.1113C47.8044 51.3701 47.5557 51.6189 47.5557 51.9258ZM47.5557 47.8521C47.5557 48.1587 47.8042 48.4072 48.1108 48.4072H67.0005C67.3071 48.4072 67.5557 48.1587 67.5557 47.8521C67.5557 47.5454 67.3071 47.2969 67.0005 47.2969H48.1108C47.8042 47.2969 47.5557 47.5454 47.5557 47.8521Z" fill="white"/>
<path d="M73.4811 39.7962C73.4811 42.6088 71.201 44.8888 68.3885 44.8888C65.5759 44.8888 63.2959 42.6088 63.2959 39.7962C63.2959 36.9836 65.5759 34.7036 68.3885 34.7036C71.201 34.7036 73.4811 36.9836 73.4811 39.7962ZM64.9985 39.7962C64.9985 41.6684 66.5163 43.1862 68.3885 43.1862C70.2607 43.1862 71.7785 41.6684 71.7785 39.7962C71.7785 37.924 70.2607 36.4062 68.3885 36.4062C66.5163 36.4062 64.9985 37.924 64.9985 39.7962Z" fill="#FEB826"/>
<path d="M73.4811 39.7962C73.4811 40.7449 73.216 41.6748 72.7159 42.481C72.2157 43.2872 71.5003 43.9376 70.6502 44.359C69.8002 44.7803 68.8493 44.9559 67.9049 44.8658C66.9604 44.7757 66.0599 44.4235 65.3049 43.8491C64.5498 43.2746 63.9703 42.5006 63.6315 41.6144C63.2928 40.7282 63.2084 39.765 63.3878 38.8333C63.5671 37.9017 64.0032 37.0387 64.6468 36.3416C65.2904 35.6446 66.1159 35.1411 67.0302 34.8881L67.4843 36.529C66.8757 36.6975 66.3262 37.0326 65.8977 37.4966C65.4693 37.9606 65.1791 38.5351 65.0597 39.1553C64.9403 39.7754 64.9965 40.4166 65.2219 41.0065C65.4474 41.5964 65.8332 42.1116 66.3358 42.4941C66.8384 42.8765 67.4379 43.1109 68.0666 43.1708C68.6952 43.2308 69.3282 43.114 69.894 42.8335C70.4599 42.553 70.9361 42.12 71.2691 41.5834C71.602 41.0467 71.7785 40.4277 71.7785 39.7962H73.4811Z" fill="#F6625F"/>
<path d="M73.4811 39.7962C73.4811 41.0557 73.0143 42.2705 72.171 43.206C71.3277 44.1415 70.1676 44.7313 68.9149 44.8615C67.6621 44.9917 66.4056 44.653 65.3879 43.9109C64.3703 43.1688 63.6637 42.076 63.4047 40.8434L65.071 40.4933C65.2434 41.3138 65.7137 42.0413 66.3911 42.5353C67.0685 43.0292 67.905 43.2547 68.7389 43.168C69.5728 43.0813 70.345 42.6887 70.9064 42.066C71.4678 41.4433 71.7785 40.6346 71.7785 39.7962H73.4811Z" fill="#A984FF"/>
<path d="M73.4811 39.7962C73.4811 41.0503 73.0183 42.2604 72.1814 43.1944C71.3446 44.1285 70.1924 44.7209 68.9458 44.8582L68.7595 43.1658C69.5893 43.0744 70.3562 42.6801 70.9133 42.0583C71.4704 41.4365 71.7785 40.631 71.7785 39.7962H73.4811Z" fill="#08CBF7"/>
<defs>
<linearGradient id="paint0_linear_926_343" x1="56" y1="16" x2="56" y2="96" gradientUnits="userSpaceOnUse">
<stop stop-color="#BC9BFF"/>
<stop offset="1" stop-color="#6E3EFE"/>
</linearGradient>
</defs>
</svg>
