<svg width="312" height="313" viewBox="0 0 312 313" fill="none" xmlns="http://www.w3.org/2000/svg">
<g filter="url(#filter0_d_50_133)">
<rect x="100" y="76.5" width="112" height="112" rx="32" fill="white" shape-rendering="crispEdges"/>
<g filter="url(#filter1_d_50_133)">
<rect x="116" y="92.5" width="80" height="80" rx="32" fill="url(#paint0_linear_50_133)"/>
</g>
<path d="M142.926 143.76C142.926 148.178 146.508 151.76 150.926 151.76H167.37C168.7 151.76 169.777 152.837 169.777 154.167C169.777 155.496 168.7 156.574 167.37 156.574H145C140.582 156.574 137 152.992 137 148.574V116.574C137 114.938 138.327 113.611 139.963 113.611C141.599 113.611 142.926 114.938 142.926 116.574V143.76Z" fill="white"/>
<path d="M177 142.463C177 146.881 173.418 150.463 169 150.463H152.223C147.804 150.463 144.223 146.881 144.223 142.463V115.5C144.223 111.082 147.804 107.5 152.223 107.5H169C173.418 107.5 177 111.082 177 115.5V142.463ZM147.556 141.389C147.556 141.696 147.804 141.944 148.111 141.944H161.26C161.567 141.944 161.815 141.696 161.815 141.389C161.815 141.082 161.567 140.833 161.26 140.833H148.111C147.804 140.833 147.556 141.082 147.556 141.389ZM148.111 137.686C147.804 137.686 147.556 137.934 147.556 138.241C147.556 138.547 147.804 138.796 148.111 138.796H173.297C173.604 138.796 173.853 138.547 173.853 138.241C173.853 137.934 173.604 137.686 173.297 137.686H148.111ZM147.556 135.093C147.556 135.4 147.804 135.648 148.111 135.648H165.148C165.455 135.648 165.704 135.4 165.704 135.093C165.704 134.786 165.455 134.537 165.148 134.537H148.111C147.804 134.537 147.556 134.786 147.556 135.093ZM147.556 131.944C147.556 132.251 147.804 132.5 148.111 132.5H170.148C170.455 132.5 170.704 132.251 170.704 131.944C170.704 131.637 170.455 131.389 170.148 131.389H148.111C147.804 131.389 147.556 131.637 147.556 131.944ZM147.556 128.426C147.556 128.733 147.804 128.981 148.111 128.981H171.444C171.751 128.981 172 128.733 172 128.426C172 128.119 171.751 127.87 171.444 127.87H148.111C147.804 127.87 147.556 128.119 147.556 128.426ZM147.556 124.352C147.556 124.658 147.804 124.907 148.111 124.907H167C167.307 124.907 167.556 124.658 167.556 124.352C167.556 124.045 167.307 123.796 167 123.796H148.111C147.804 123.796 147.556 124.045 147.556 124.352Z" fill="white"/>
<path d="M173.481 116.296C173.481 119.109 171.201 121.389 168.388 121.389C165.576 121.389 163.296 119.109 163.296 116.296C163.296 113.484 165.576 111.204 168.388 111.204C171.201 111.204 173.481 113.484 173.481 116.296ZM164.999 116.296C164.999 118.168 166.516 119.686 168.388 119.686C170.261 119.686 171.778 118.168 171.778 116.296C171.778 114.424 170.261 112.906 168.388 112.906C166.516 112.906 164.999 114.424 164.999 116.296Z" fill="#FEB826"/>
<path d="M173.481 116.296C173.481 117.245 173.216 118.175 172.716 118.981C172.216 119.787 171.5 120.438 170.65 120.859C169.8 121.28 168.849 121.456 167.905 121.366C166.96 121.276 166.06 120.924 165.305 120.349C164.55 119.775 163.97 119.001 163.632 118.114C163.293 117.228 163.208 116.265 163.388 115.333C163.567 114.402 164.003 113.539 164.647 112.842C165.29 112.145 166.116 111.641 167.03 111.388L167.484 113.029C166.876 113.197 166.326 113.533 165.898 113.997C165.469 114.461 165.179 115.035 165.06 115.655C164.94 116.275 164.996 116.917 165.222 117.507C165.447 118.096 165.833 118.612 166.336 118.994C166.838 119.376 167.438 119.611 168.067 119.671C168.695 119.731 169.328 119.614 169.894 119.333C170.46 119.053 170.936 118.62 171.269 118.083C171.602 117.547 171.778 116.928 171.778 116.296H173.481Z" fill="#F6625F"/>
<path d="M173.481 116.296C173.481 117.556 173.014 118.771 172.171 119.706C171.328 120.642 170.168 121.231 168.915 121.362C167.662 121.492 166.406 121.153 165.388 120.411C164.37 119.669 163.664 118.576 163.405 117.343L165.071 116.993C165.243 117.814 165.714 118.541 166.391 119.035C167.069 119.529 167.905 119.755 168.739 119.668C169.573 119.581 170.345 119.189 170.906 118.566C171.468 117.943 171.778 117.135 171.778 116.296H173.481Z" fill="#A984FF"/>
<path d="M173.481 116.296C173.481 117.55 173.018 118.76 172.181 119.694C171.345 120.629 170.192 121.221 168.946 121.358L168.76 119.666C169.589 119.574 170.356 119.18 170.913 118.558C171.47 117.937 171.778 117.131 171.778 116.296H173.481Z" fill="#08CBF7"/>
</g>
<defs>
<filter id="filter0_d_50_133" x="0" y="0.5" width="312" height="312" filterUnits="userSpaceOnUse" color-interpolation-filters="sRGB">
<feFlood flood-opacity="0" result="BackgroundImageFix"/>
<feColorMatrix in="SourceAlpha" type="matrix" values="0 0 0 0 0 0 0 0 0 0 0 0 0 0 0 0 0 0 127 0" result="hardAlpha"/>
<feOffset dy="24"/>
<feGaussianBlur stdDeviation="50"/>
<feComposite in2="hardAlpha" operator="out"/>
<feColorMatrix type="matrix" values="0 0 0 0 0.580392 0 0 0 0 0.419608 0 0 0 0 0.996078 0 0 0 0.46 0"/>
<feBlend mode="normal" in2="BackgroundImageFix" result="effect1_dropShadow_50_133"/>
<feBlend mode="normal" in="SourceGraphic" in2="effect1_dropShadow_50_133" result="shape"/>
</filter>
<filter id="filter1_d_50_133" x="112" y="92.5" width="88" height="88" filterUnits="userSpaceOnUse" color-interpolation-filters="sRGB">
<feFlood flood-opacity="0" result="BackgroundImageFix"/>
<feColorMatrix in="SourceAlpha" type="matrix" values="0 0 0 0 0 0 0 0 0 0 0 0 0 0 0 0 0 0 127 0" result="hardAlpha"/>
<feOffset dy="4"/>
<feGaussianBlur stdDeviation="2"/>
<feComposite in2="hardAlpha" operator="out"/>
<feColorMatrix type="matrix" values="0 0 0 0 0.580392 0 0 0 0 0.419608 0 0 0 0 0.996078 0 0 0 0.4 0"/>
<feBlend mode="normal" in2="BackgroundImageFix" result="effect1_dropShadow_50_133"/>
<feBlend mode="normal" in="SourceGraphic" in2="effect1_dropShadow_50_133" result="shape"/>
</filter>
<linearGradient id="paint0_linear_50_133" x1="156" y1="92.5" x2="156" y2="172.5" gradientUnits="userSpaceOnUse">
<stop stop-color="#BC9BFF"/>
<stop offset="1" stop-color="#6E3EFE"/>
</linearGradient>
</defs>
</svg>
