<svg width="39" height="40" viewBox="0 0 39 40" fill="none" xmlns="http://www.w3.org/2000/svg">
<path d="M19.8926 0.892546C9.3394 0.892546 0.785156 9.44841 0.785156 20C0.785156 30.5532 9.3394 39.1075 19.8926 39.1075C30.4442 39.1075 39.0001 30.5516 39.0001 20C39.0001 9.44841 30.4442 0.892546 19.8926 0.892546ZM15.2116 25.1309C15.2116 26.1636 14.3748 26.9988 13.3438 26.9988C12.3111 26.9988 11.4759 26.1636 11.4759 25.1309V17.1675C11.4759 16.1348 12.3111 15.298 13.3438 15.298C14.3748 15.298 15.2116 16.1348 15.2116 17.1675V25.1309ZM28.4064 24.9966C28.4064 26.4566 27.5534 26.9794 26.0934 26.9794H19.3763C17.9163 26.9794 16.7331 25.7962 16.7331 24.3362V17.7291C16.7331 17.7291 16.602 16.6301 17.8192 15.5974C18.5071 15.0131 19.5284 13.8979 20.2422 12.5448C21.6601 9.8563 22.5083 9.0729 23.1541 9.28332C25.5463 10.0586 24.3502 13.605 23.5781 15.086H25.7632C27.2216 15.086 28.4064 16.2691 28.4064 17.7291V24.9966Z" fill="#5D5DFF"/>
</svg>
