<svg width="24" height="20" viewBox="0 0 24 20" fill="none" xmlns="http://www.w3.org/2000/svg">
<path d="M23.99 6.50886V17.1428C23.99 17.7321 23.7803 18.2365 23.3608 18.6562C22.9413 19.0758 22.4371 19.2856 21.848 19.2856H2.14196C1.55292 19.2856 1.04867 19.0758 0.629202 18.6562C0.209734 18.2365 0 17.7321 0 17.1428V6.50886C0.392694 6.94636 0.843399 7.33475 1.35212 7.67404C4.58291 9.87047 6.80074 11.4106 8.00559 12.2946C8.51431 12.6696 8.92708 12.962 9.24392 13.1718C9.56075 13.3816 9.98245 13.5959 10.509 13.8147C11.0356 14.0334 11.5264 14.1428 11.9816 14.1428H11.995H12.0084C12.4636 14.1428 12.9544 14.0334 13.481 13.8147C14.0076 13.5959 14.4293 13.3816 14.7461 13.1718C15.0629 12.962 15.4757 12.6696 15.9844 12.2946C17.5016 11.1964 19.7239 9.65618 22.6513 7.67404C23.16 7.32582 23.6062 6.93743 23.99 6.50886ZM23.99 2.57136C23.99 3.27672 23.7713 3.95082 23.334 4.59368C22.8967 5.23654 22.3523 5.78564 21.7008 6.241C18.345 8.57136 16.2566 10.0223 15.4355 10.5937C15.3463 10.6562 15.1566 10.7923 14.8666 11.0022C14.5765 11.212 14.3355 11.3816 14.1437 11.5111C13.9518 11.6406 13.7197 11.7856 13.4475 11.9464C13.1753 12.1071 12.9187 12.2276 12.6778 12.308C12.4368 12.3883 12.2137 12.4285 12.0084 12.4285H11.995H11.9816C11.7763 12.4285 11.5532 12.3883 11.3123 12.308C11.0713 12.2276 10.8147 12.1071 10.5425 11.9464C10.2703 11.7856 10.0382 11.6406 9.84634 11.5111C9.65446 11.3816 9.41349 11.212 9.12343 11.0022C8.83337 10.7923 8.64372 10.6562 8.55447 10.5937C7.74231 10.0223 6.57315 9.20752 5.047 8.14948C3.52085 7.09145 2.60606 6.45529 2.30261 6.241C1.74927 5.866 1.22717 5.35038 0.7363 4.69413C0.245433 4.03788 0 3.4285 0 2.866C0 2.16957 0.185191 1.58922 0.555572 1.12493C0.925954 0.660645 1.45475 0.428501 2.14196 0.428501H21.848C22.4282 0.428501 22.9302 0.638323 23.3541 1.05797C23.778 1.47761 23.99 1.98207 23.99 2.57136Z" fill="white"/>
</svg>
