<svg width="41" height="41" viewBox="0 0 41 41" fill="none" xmlns="http://www.w3.org/2000/svg">
<g clip-path="url(#clip0_73_120)">
<g style="mix-blend-mode:multiply">
<path d="M20.3525 22.2139L8.77637 38.1526C8.87392 38.1851 8.93896 38.25 9.03651 38.25C9.3942 38.3149 9.84945 38.0552 10.7924 37.6008L19.6371 32.9912C19.8972 32.8614 20.0598 32.764 20.1899 32.7315C20.3199 32.7315 20.45 32.7315 20.5801 32.7315C20.7101 32.7315 20.8727 32.8289 21.1329 32.9912L29.9776 37.6008C30.9206 38.0877 31.3758 38.3149 31.7335 38.25C32.0261 38.1851 32.2863 38.0228 32.4489 37.7306C32.6115 37.4385 32.5139 36.9191 32.3513 35.8803L30.6604 26.1418C30.5954 25.8496 30.5954 25.6873 30.5954 25.525C30.5954 25.3952 30.6604 25.2653 30.7255 25.1679C30.7905 25.0381 30.9206 24.9407 31.1157 24.7135L38.2696 17.7991C39.0175 17.085 39.4076 16.6954 39.4401 16.3708C39.4726 16.0787 39.375 15.7541 39.1799 15.5593C38.9523 15.2996 38.432 15.2347 37.3915 15.0724L27.5063 13.644C27.2136 13.6116 27.051 13.5791 26.9209 13.5142C26.7909 13.4493 26.6933 13.3844 26.5958 13.287C26.4982 13.1896 26.4332 13.0273 26.3031 12.7676L21.8808 3.90555C21.4255 2.96416 21.1979 2.50969 20.8727 2.34739C20.7427 2.28246 20.5801 2.25 20.45 2.25V22.2139H20.3525Z" fill="#FF771A" fill-opacity="0.35"/>
</g>
<path d="M18.9552 3.90555L14.5328 12.7676C14.4026 13.0597 14.3377 13.1896 14.2402 13.287C14.1426 13.3844 14.0451 13.4493 13.915 13.5142C13.7849 13.5791 13.6222 13.6116 13.3296 13.644L3.44439 15.0724C2.40384 15.2347 1.88356 15.2996 1.65594 15.5593C1.46084 15.7865 1.3633 16.0787 1.39581 16.3708C1.42833 16.7279 1.81853 17.085 2.56642 17.7991L9.72022 24.7135C9.94784 24.9407 10.0454 25.0381 10.1104 25.1679C10.1755 25.2653 10.208 25.3952 10.2405 25.525C10.2405 25.6549 10.2405 25.8172 10.1755 26.1418L8.48457 35.8803C8.32199 36.9191 8.22443 37.4385 8.38701 37.7306C8.48456 37.9254 8.64715 38.0552 8.84225 38.1202L20.4184 22.2139V2.25C20.4184 2.25 20.1258 2.28246 19.9957 2.34739C19.6705 2.50969 19.4429 2.96416 18.9876 3.90555H18.9552Z" fill="#FF7F00"/>
</g>
<defs>
<clipPath id="clip0_73_120">
<rect width="40" height="40" fill="white" transform="translate(0.389648 0.25)"/>
</clipPath>
</defs>
</svg>
