<svg width="53" height="51" viewBox="0 0 53 51" fill="none" xmlns="http://www.w3.org/2000/svg">
<g filter="url(#filter0_d_73_115)">
<path d="M37.0841 30.2135L44.2379 23.2991C44.9858 22.585 45.3759 22.1954 45.4085 21.8708C45.441 21.5787 45.3435 21.2541 45.1484 21.0593C44.9208 20.7996 44.4005 20.7347 43.3599 20.5724L33.4746 19.144C33.1819 19.1116 33.0193 19.0791 32.8893 19.0142C32.7592 18.9493 32.6618 18.8844 32.5641 18.787C32.4665 18.6896 32.4016 18.5273 32.2716 18.2676L27.8491 9.40555C27.3939 8.46416 27.1663 8.00969 26.8412 7.84739C26.5809 7.71754 26.2558 7.71754 25.9632 7.84739C25.638 8.00969 25.4104 8.46416 24.9552 9.40555L20.5328 18.2676C20.4028 18.5597 20.3377 18.6896 20.2402 18.787C20.1426 18.8844 20.0451 18.9493 19.915 19.0142C19.7849 19.0791 19.6223 19.1116 19.3297 19.144L9.44439 20.5724C8.40384 20.7347 7.88358 20.7996 7.65596 21.0593C7.46085 21.2865 7.36329 21.5787 7.39581 21.8708C7.42833 22.2279 7.81854 22.585 8.56643 23.2991L15.7203 30.2135C15.9479 30.4407 16.0454 30.5381 16.1105 30.6679C16.1755 30.7653 16.208 30.8952 16.2406 31.025C16.2406 31.1549 16.2405 31.3172 16.1755 31.6418L14.4846 41.3803C14.322 42.4191 14.2245 42.9385 14.3871 43.2306C14.5171 43.4903 14.7773 43.6851 15.1024 43.75C15.4601 43.8149 15.9154 43.5552 16.8584 43.1008L25.7031 38.4912C25.9632 38.3614 26.1258 38.264 26.2558 38.2315C26.3859 38.2315 26.5159 38.2315 26.646 38.2315C26.776 38.2315 26.9387 38.3289 27.1987 38.4912L36.0435 43.1008C36.9865 43.5877 37.4418 43.8149 37.7995 43.75C38.0921 43.6851 38.3522 43.5228 38.5148 43.2306C38.6773 42.9385 38.5798 42.4191 38.4172 41.3803L36.7264 31.6418C36.6614 31.3496 36.6614 31.1873 36.6614 31.025C36.6614 30.8952 36.7263 30.7653 36.7914 30.6679C36.8564 30.5381 36.9865 30.4407 37.1816 30.2135H37.0841Z" fill="url(#paint0_linear_73_115)"/>
<path d="M25.9632 7.84739C26.2559 7.71754 26.581 7.71754 26.8412 7.84739C27.1663 8.00969 27.394 8.46416 27.8492 9.40555L32.2716 18.2676M25.9632 7.84739L33.4747 19.144C33.182 19.1116 33.0194 19.0791 32.8894 19.0142C32.7593 18.9493 32.6618 18.8844 32.5642 18.787C32.4878 18.7107 32.4313 18.5945 32.3479 18.4229C32.3248 18.3755 32.2997 18.3238 32.2716 18.2676M25.9632 7.84739C25.638 8.00969 25.4104 8.46416 24.9552 9.40555L25.9632 7.84739ZM32.2716 18.2676L33.1657 17.8198L28.7467 8.96453C28.5277 8.5117 28.3343 8.11349 28.1486 7.81109C27.9647 7.51152 27.705 7.16094 27.2878 6.95265C26.7315 6.67499 26.0917 6.69636 25.5576 6.93332L25.5369 6.94252L25.5166 6.95265C25.0993 7.16094 24.8397 7.51154 24.6558 7.8111C24.4701 8.11352 24.2766 8.51175 24.0576 8.96461L19.6381 17.8211L19.6282 17.8408L19.6193 17.8609C19.5877 17.9319 19.5629 17.9864 19.542 18.0307C19.528 18.0602 19.5173 18.0818 19.5091 18.0977C19.5035 18.101 19.4958 18.1053 19.4854 18.1108C19.4819 18.1116 19.4772 18.1128 19.4712 18.114C19.4286 18.1233 19.3553 18.1351 19.2194 18.1501L19.203 18.152L19.1867 18.1543L9.30144 19.5826L9.29033 19.5843C9.22488 19.5945 9.16022 19.6045 9.09651 19.6144C8.68159 19.6785 8.30667 19.7365 8.0129 19.8067C7.69349 19.8831 7.23656 20.0207 6.904 20.4001L6.89731 20.4079C6.53697 20.8275 6.33863 21.3878 6.40102 21.9724C6.45056 22.4769 6.73846 22.8558 6.96005 23.1093C7.16976 23.3491 7.45712 23.6231 7.7707 23.922C7.80475 23.9545 7.83912 23.9873 7.87373 24.0203C7.87445 24.021 7.87517 24.0217 7.87589 24.0224L15.0195 30.9269C15.0748 30.9822 15.1173 31.0246 15.1533 31.0613C15.1903 31.0992 15.2127 31.1232 15.2271 31.1395C15.2281 31.1406 15.229 31.1416 15.2298 31.1426L15.2374 31.1577C15.2369 31.164 15.2364 31.1705 15.2359 31.1771C15.2313 31.2315 15.2211 31.3152 15.195 31.4454L15.1925 31.458L15.1902 31.4707L13.4994 41.2092L13.4979 41.2174L13.4966 41.2257C13.4858 41.2948 13.4751 41.363 13.4645 41.43C13.3997 41.8402 13.3416 42.2081 13.3173 42.5034C13.2915 42.8159 13.2762 43.2748 13.5019 43.696C13.7853 44.2474 14.3147 44.6124 14.9066 44.7306L14.9152 44.7324L14.9238 44.7339C15.4031 44.8209 15.8365 44.6703 16.1411 44.5451C16.3749 44.4489 16.6593 44.3101 16.9697 44.1585C17.0747 44.1073 17.1826 44.0546 17.2925 44.0016L17.3066 43.9948L17.3205 43.9876L26.1577 39.3819C26.2267 39.3474 26.2884 39.3155 26.3408 39.2884L26.354 39.2815C26.3927 39.2615 26.4237 39.2455 26.4511 39.2315H26.4525H26.454H26.4555H26.4571H26.4586H26.4601H26.4616H26.4631H26.4647H26.4662H26.4677H26.4692H26.4708H26.4723H26.4738H26.4753H26.4769H26.4784H26.4799H26.4814H26.483H26.4845H26.486H26.4875H26.4891H26.4906H26.4921C26.4977 39.2348 26.5043 39.2384 26.5107 39.2422C26.554 39.2678 26.6045 39.2991 26.6695 39.3396L26.7023 39.3601L26.7367 39.378L35.5814 43.9876L35.5847 43.9893C36.0409 44.2248 36.4398 44.4301 36.7725 44.562C37.1007 44.692 37.519 44.8173 37.9781 44.7339L37.9971 44.7305L38.0161 44.7263C38.5424 44.6095 39.066 44.2967 39.3887 43.7169C39.6262 43.29 39.6108 42.8211 39.5847 42.5034C39.5604 42.2082 39.5022 41.8402 39.4375 41.4301C39.4269 41.3631 39.4161 41.2949 39.4053 41.2257L39.404 41.2174L39.4026 41.2092L37.7117 31.4707L37.7076 31.4475L37.7025 31.4245C37.6789 31.3186 37.6701 31.2499 37.666 31.2016C37.665 31.1892 37.6642 31.1773 37.6636 31.1651C37.6642 31.1645 37.6648 31.1639 37.6654 31.1632C37.6738 31.1542 37.6849 31.1428 37.698 31.1291C37.7531 31.0717 37.8453 30.9756 37.9403 30.8649L38.3858 30.346L44.9285 24.0224C44.9292 24.0217 44.93 24.021 44.9307 24.0203C45.294 23.6733 45.6169 23.3621 45.8502 23.0903C46.0598 22.8462 46.352 22.4659 46.403 21.976C46.4609 21.4417 46.3024 20.8143 45.877 20.374C45.5466 20.0143 45.1034 19.8813 44.7915 19.8067C44.4977 19.7365 44.1228 19.6785 43.7079 19.6144C43.6442 19.6045 43.5795 19.5945 43.514 19.5843L43.5029 19.5826L33.6177 18.1543L33.6013 18.152L33.5849 18.1501C33.449 18.1351 33.3757 18.1233 33.3331 18.114C33.3272 18.1128 33.3225 18.1116 33.3189 18.1108M32.2716 18.2676L33.1663 17.8211C33.1971 17.8827 33.2248 17.9394 33.2476 17.9864L33.2577 18.0071C33.278 18.0489 33.2929 18.0792 33.3052 18.1034M33.3052 18.1034C33.292 18.0961 33.2856 18.0918 33.2832 18.0901C33.281 18.0886 33.2782 18.0868 33.2707 18.0793C33.2985 18.107 33.3161 18.1302 33.3246 18.1422C33.3267 18.1451 33.3282 18.1474 33.3292 18.1489C33.3305 18.1509 33.3311 18.1518 33.3308 18.1513C33.3304 18.1506 33.3285 18.1475 33.3251 18.1413C33.3227 18.1369 33.3196 18.1311 33.3156 18.1235C33.3123 18.1173 33.3089 18.1106 33.3052 18.1034ZM33.3052 18.1034C33.3091 18.1056 33.3137 18.108 33.3189 18.1108L33.3052 18.1034ZM33.3189 18.1108C33.3128 18.1092 33.31 18.1084 33.31 18.1084C33.31 18.1084 33.3203 18.1116 33.336 18.1195C33.3296 18.1163 33.3239 18.1134 33.3189 18.1108Z" fill="url(#paint1_linear_73_115)"/>
<path d="M25.9632 7.84739C26.2559 7.71754 26.581 7.71754 26.8412 7.84739C27.1663 8.00969 27.394 8.46416 27.8492 9.40555L32.2716 18.2676M25.9632 7.84739L33.4747 19.144C33.182 19.1116 33.0194 19.0791 32.8894 19.0142C32.7593 18.9493 32.6618 18.8844 32.5642 18.787C32.4878 18.7107 32.4313 18.5945 32.3479 18.4229C32.3248 18.3755 32.2997 18.3238 32.2716 18.2676M25.9632 7.84739C25.638 8.00969 25.4104 8.46416 24.9552 9.40555L25.9632 7.84739ZM32.2716 18.2676L33.1657 17.8198L28.7467 8.96453C28.5277 8.5117 28.3343 8.11349 28.1486 7.81109C27.9647 7.51152 27.705 7.16094 27.2878 6.95265C26.7315 6.67499 26.0917 6.69636 25.5576 6.93332L25.5369 6.94252L25.5166 6.95265C25.0993 7.16094 24.8397 7.51154 24.6558 7.8111C24.4701 8.11352 24.2766 8.51175 24.0576 8.96461L19.6381 17.8211L19.6282 17.8408L19.6193 17.8609C19.5877 17.9319 19.5629 17.9864 19.542 18.0307C19.528 18.0602 19.5173 18.0818 19.5091 18.0977C19.5035 18.101 19.4958 18.1053 19.4854 18.1108C19.4819 18.1116 19.4772 18.1128 19.4712 18.114C19.4286 18.1233 19.3553 18.1351 19.2194 18.1501L19.203 18.152L19.1867 18.1543L9.30144 19.5826L9.29033 19.5843C9.22488 19.5945 9.16022 19.6045 9.09651 19.6144C8.68159 19.6785 8.30667 19.7365 8.0129 19.8067C7.69349 19.8831 7.23656 20.0207 6.904 20.4001L6.89731 20.4079C6.53697 20.8275 6.33863 21.3878 6.40102 21.9724C6.45056 22.4769 6.73846 22.8558 6.96005 23.1093C7.16976 23.3491 7.45712 23.6231 7.7707 23.922C7.80475 23.9545 7.83912 23.9873 7.87373 24.0203C7.87445 24.021 7.87517 24.0217 7.87589 24.0224L15.0195 30.9269C15.0748 30.9822 15.1173 31.0246 15.1533 31.0613C15.1903 31.0992 15.2127 31.1232 15.2271 31.1395C15.2281 31.1406 15.229 31.1416 15.2298 31.1426L15.2374 31.1577C15.2369 31.164 15.2364 31.1705 15.2359 31.1771C15.2313 31.2315 15.2211 31.3152 15.195 31.4454L15.1925 31.458L15.1902 31.4707L13.4994 41.2092L13.4979 41.2174L13.4966 41.2257C13.4858 41.2948 13.4751 41.363 13.4645 41.43C13.3997 41.8402 13.3416 42.2081 13.3173 42.5034C13.2915 42.8159 13.2762 43.2748 13.5019 43.696C13.7853 44.2474 14.3147 44.6124 14.9066 44.7306L14.9152 44.7324L14.9238 44.7339C15.4031 44.8209 15.8365 44.6703 16.1411 44.5451C16.3749 44.4489 16.6593 44.3101 16.9697 44.1585C17.0747 44.1073 17.1826 44.0546 17.2925 44.0016L17.3066 43.9948L17.3205 43.9876L26.1577 39.3819C26.2267 39.3474 26.2884 39.3155 26.3408 39.2884L26.354 39.2815C26.3927 39.2615 26.4237 39.2455 26.4511 39.2315H26.4525H26.454H26.4555H26.4571H26.4586H26.4601H26.4616H26.4631H26.4647H26.4662H26.4677H26.4692H26.4708H26.4723H26.4738H26.4753H26.4769H26.4784H26.4799H26.4814H26.483H26.4845H26.486H26.4875H26.4891H26.4906H26.4921C26.4977 39.2348 26.5043 39.2384 26.5107 39.2422C26.554 39.2678 26.6045 39.2991 26.6695 39.3396L26.7023 39.3601L26.7367 39.378L35.5814 43.9876L35.5847 43.9893C36.0409 44.2248 36.4398 44.4301 36.7725 44.562C37.1007 44.692 37.519 44.8173 37.9781 44.7339L37.9971 44.7305L38.0161 44.7263C38.5424 44.6095 39.066 44.2967 39.3887 43.7169C39.6262 43.29 39.6108 42.8211 39.5847 42.5034C39.5604 42.2082 39.5022 41.8402 39.4375 41.4301C39.4269 41.3631 39.4161 41.2949 39.4053 41.2257L39.404 41.2174L39.4026 41.2092L37.7117 31.4707L37.7076 31.4475L37.7025 31.4245C37.6789 31.3186 37.6701 31.2499 37.666 31.2016C37.665 31.1892 37.6642 31.1773 37.6636 31.1651C37.6642 31.1645 37.6648 31.1639 37.6654 31.1632C37.6738 31.1542 37.6849 31.1428 37.698 31.1291C37.7531 31.0717 37.8453 30.9756 37.9403 30.8649L38.3858 30.346L44.9285 24.0224C44.9292 24.0217 44.93 24.021 44.9307 24.0203C45.294 23.6733 45.6169 23.3621 45.8502 23.0903C46.0598 22.8462 46.352 22.4659 46.403 21.976C46.4609 21.4417 46.3024 20.8143 45.877 20.374C45.5466 20.0143 45.1034 19.8813 44.7915 19.8067C44.4977 19.7365 44.1228 19.6785 43.7079 19.6144C43.6442 19.6045 43.5795 19.5945 43.514 19.5843L43.5029 19.5826L33.6177 18.1543L33.6013 18.152L33.5849 18.1501C33.449 18.1351 33.3757 18.1233 33.3331 18.114C33.3272 18.1128 33.3225 18.1116 33.3189 18.1108M32.2716 18.2676L33.1663 17.8211C33.1971 17.8827 33.2248 17.9394 33.2476 17.9864L33.2577 18.0071C33.278 18.0489 33.2929 18.0792 33.3052 18.1034M33.3189 18.1108C33.3137 18.108 33.3091 18.1056 33.3052 18.1034M33.3189 18.1108C33.3128 18.1092 33.31 18.1084 33.31 18.1084C33.31 18.1084 33.3203 18.1116 33.336 18.1195C33.3296 18.1163 33.3239 18.1134 33.3189 18.1108ZM33.3052 18.1034C33.292 18.0961 33.2856 18.0918 33.2832 18.0901C33.281 18.0886 33.2782 18.0868 33.2707 18.0793C33.2985 18.107 33.3161 18.1302 33.3246 18.1422C33.3267 18.1451 33.3282 18.1474 33.3292 18.1489C33.3305 18.1509 33.3311 18.1518 33.3308 18.1513C33.3304 18.1506 33.3285 18.1475 33.3251 18.1413C33.3227 18.1369 33.3196 18.1311 33.3156 18.1235C33.3123 18.1173 33.3089 18.1106 33.3052 18.1034Z" stroke="url(#paint2_radial_73_115)" stroke-width="2"/>
</g>
<defs>
<filter id="filter0_d_73_115" x="0.389648" y="0.75" width="52.0244" height="50.0108" filterUnits="userSpaceOnUse" color-interpolation-filters="sRGB">
<feFlood flood-opacity="0" result="BackgroundImageFix"/>
<feColorMatrix in="SourceAlpha" type="matrix" values="0 0 0 0 0 0 0 0 0 0 0 0 0 0 0 0 0 0 127 0" result="hardAlpha"/>
<feOffset/>
<feGaussianBlur stdDeviation="2.5"/>
<feComposite in2="hardAlpha" operator="out"/>
<feColorMatrix type="matrix" values="0 0 0 0 0.631373 0 0 0 0 0.811765 0 0 0 0 0.494118 0 0 0 0.5 0"/>
<feBlend mode="normal" in2="BackgroundImageFix" result="effect1_dropShadow_73_115"/>
<feBlend mode="normal" in="SourceGraphic" in2="effect1_dropShadow_73_115" result="shape"/>
</filter>
<linearGradient id="paint0_linear_73_115" x1="26.4021" y1="7.75" x2="26.4021" y2="43.7609" gradientUnits="userSpaceOnUse">
<stop stop-color="#FEC128"/>
<stop offset="1" stop-color="#FF771A"/>
</linearGradient>
<linearGradient id="paint1_linear_73_115" x1="26.4021" y1="6.75" x2="26.4021" y2="44.7608" gradientUnits="userSpaceOnUse">
<stop stop-color="#FEC128"/>
<stop offset="1" stop-color="#FF771A"/>
</linearGradient>
<radialGradient id="paint2_radial_73_115" cx="0" cy="0" r="1" gradientUnits="userSpaceOnUse" gradientTransform="translate(45.4147 7.75) rotate(117.832) scale(40.7217 77.5459)">
<stop stop-color="#ECF5E5"/>
<stop offset="1" stop-color="#DAF1F0"/>
</radialGradient>
</defs>
</svg>
