<svg width="24" height="24" viewBox="0 0 24 24" fill="none" xmlns="http://www.w3.org/2000/svg">
<path fill-rule="evenodd" clip-rule="evenodd" d="M17.0105 8.674C15.3645 8.674 14.0205 7.34 14.0205 5.694V3.652L19.3025 8.674H17.0105ZM13.7315 13.823H8.83147C8.41747 13.823 8.08147 13.488 8.08147 13.073C8.08147 12.659 8.41747 12.323 8.83147 12.323H13.7315C14.1455 12.323 14.4815 12.659 14.4815 13.073C14.4815 13.488 14.1455 13.823 13.7315 13.823ZM20.7055 8.85C20.7055 8.81 20.7055 8.78 20.6955 8.74C20.6655 8.56 20.6355 8.38 20.6055 8.21C20.5855 8.1 20.5355 8.01 20.4555 7.93L14.7855 2.53C14.7155 2.46 14.6155 2.41 14.5155 2.4C14.3455 2.38 14.1655 2.36 13.9855 2.34C13.9555 2.33 13.9155 2.33 13.8855 2.33C13.3055 2.28 12.6655 2.25 11.9955 2.25C5.43547 2.25 3.10547 4.8 3.10547 12C3.10547 19.19 5.43547 21.75 11.9955 21.75C18.5655 21.75 20.8955 19.19 20.8955 12C20.8955 10.8 20.8355 9.76 20.7055 8.85Z" fill="#F2F7FA"/>
</svg>
