<svg width="87" height="87" viewBox="0 0 87 87" fill="none" xmlns="http://www.w3.org/2000/svg">
<rect x="0.5" y="0.5" width="85.875" height="85.875" rx="32" fill="white" fill-opacity="0.27"/>
<path fill-rule="evenodd" clip-rule="evenodd" d="M42.5524 55.0296C41.4774 55.4739 40.2483 55.8932 39.1017 55.8932C38.213 55.8932 37.3781 55.6423 36.6972 54.9615C36.1992 54.4634 34.6691 52.9369 34.7121 42.8534C34.7515 32.8237 36.2171 31.3617 36.6972 30.8779C38.3886 29.1902 41.1872 30.3404 42.384 30.8385C45.3367 32.0604 56.8965 38.428 56.8965 42.9215C56.8965 47.4867 45.0858 53.9797 42.5524 55.0296ZM43.4375 8.5C17.6447 8.5 8.5 17.6447 8.5 43.4375C8.5 69.2303 17.6447 78.375 43.4375 78.375C69.2339 78.375 78.375 69.2303 78.375 43.4375C78.375 17.6447 69.2339 8.5 43.4375 8.5Z" fill="white"/>
</svg>
