<svg width="80" height="64" viewBox="0 0 80 64" fill="none" xmlns="http://www.w3.org/2000/svg">
<path d="M64.463 32.6892C73.2476 32.6892 79.1673 38.9103 79.1673 48.128C79.1673 56.4228 72.3635 63.3332 63.1481 63.3332C53.0543 63.3332 45.5959 55.0384 45.5959 42.3683C45.5959 13.5701 66.2199 2.05087 79.1673 0.66651V13.3366C70.3884 14.9488 60.5184 23.9329 60.0764 33.8457C60.5184 33.6178 62.2697 32.6892 64.463 32.6892ZM19.7067 32.6892C28.4801 32.6892 34.4054 38.9103 34.4054 48.128C34.4054 56.4228 27.6016 63.3332 18.3862 63.3332C8.29244 63.3332 0.833984 55.0384 0.833984 42.3683C0.833984 13.5701 21.458 2.05087 34.4054 0.66651V13.3366C25.6265 14.9488 15.7565 23.9329 15.3145 33.8457C15.7565 33.6178 17.5078 32.6892 19.7067 32.6892Z" fill="#050505"/>
</svg>
