<svg width="41" height="41" viewBox="0 0 41 41" fill="none" xmlns="http://www.w3.org/2000/svg">
<g opacity="0.8">
<path d="M22.4219 29.4688V15.375C22.424 13.3368 23.2346 11.3827 24.6758 9.94146C26.1171 8.50023 28.0712 7.68962 30.1094 7.6875C30.4492 7.6875 30.7751 7.82249 31.0154 8.06277C31.2556 8.30305 31.3906 8.62894 31.3906 8.96875C31.3906 9.30856 31.2556 9.63445 31.0154 9.87473C30.7751 10.115 30.4492 10.25 30.1094 10.25C28.7501 10.25 27.4466 10.79 26.4855 11.7511C25.5243 12.7122 24.9844 14.0158 24.9844 15.375V16.6562H34.5938C35.2734 16.6562 35.9251 16.9262 36.4057 17.4068C36.8863 17.8874 37.1562 18.5391 37.1562 19.2188V29.4688C37.1562 30.1484 36.8863 30.8001 36.4057 31.2807C35.9251 31.7613 35.2734 32.0312 34.5938 32.0312H24.9844C24.3048 32.0312 23.653 31.7613 23.1724 31.2807C22.6919 30.8001 22.4219 30.1484 22.4219 29.4688ZM6.40625 32.0312L16.0156 32.0312C16.6952 32.0312 17.347 31.7613 17.8276 31.2807C18.3081 30.8001 18.5781 30.1484 18.5781 29.4687V19.2188C18.5781 18.5391 18.3081 17.8874 17.8276 17.4068C17.347 16.9262 16.6952 16.6562 16.0156 16.6562L6.40625 16.6562V15.375C6.40625 14.0158 6.94621 12.7122 7.90733 11.7511C8.86845 10.79 10.172 10.25 11.5313 10.25C11.8711 10.25 12.197 10.115 12.4372 9.87473C12.6775 9.63445 12.8125 9.30856 12.8125 8.96875C12.8125 8.62894 12.6775 8.30305 12.4372 8.06277C12.197 7.82249 11.8711 7.6875 11.5313 7.6875C9.49305 7.68962 7.53893 8.50023 6.09771 9.94146C4.65648 11.3827 3.84587 13.3368 3.84375 15.375V29.4687C3.84375 30.1484 4.11373 30.8001 4.59429 31.2807C5.07485 31.7613 5.72663 32.0312 6.40625 32.0312Z" fill="#FFEBEB"/>
</g>
</svg>
