<svg width="48" height="48" viewBox="0 0 48 48" fill="none" xmlns="http://www.w3.org/2000/svg">
<rect width="48" height="48" rx="13.7143" fill="white"/>
<rect x="6.85742" y="6.85742" width="34.2857" height="34.2857" rx="13.7143" fill="url(#paint0_linear_928_410)"/>
<path d="M26.8652 29.9173H21.8577C20.088 29.9173 18.6533 28.4826 18.6533 26.7129C18.6533 24.4866 20.8676 22.9388 22.9584 23.7035L23.2899 23.8247C24.0032 24.0856 24.7865 24.0817 25.4971 23.8136L25.7357 23.7236C27.8 22.9448 30.0146 24.4396 30.0642 26.6454C30.1046 28.4404 28.6606 29.9173 26.8652 29.9173Z" fill="white"/>
<circle cx="24.1316" cy="19.9505" r="3.23416" fill="white"/>
<circle cx="24.214" cy="19.9293" r="1.07143" fill="#FEA523"/>
<path d="M18.3623 13.4214C20.8181 12.1087 23.6536 11.6877 26.3848 12.231C29.1158 12.7743 31.5734 14.2484 33.3398 16.4009C34.8333 18.2206 35.7548 20.4302 36.0039 22.7524C36.0796 23.4583 35.497 24.0364 34.7871 24.0366H34.6426C33.9327 24.0364 33.3662 23.4576 33.2686 22.7544C33.0335 21.0615 32.3359 19.4565 31.2412 18.1226C29.8732 16.4558 27.9694 15.3147 25.8545 14.894C23.7396 14.4734 21.5443 14.7995 19.6426 15.8159C17.7407 16.8325 16.2501 18.4769 15.4248 20.4692C14.5996 22.4615 14.4903 24.6782 15.1162 26.7417C15.7422 28.8053 17.0644 30.5885 18.8574 31.7866C20.6505 32.9847 22.8041 33.5234 24.9502 33.312C26.5569 33.1537 28.085 32.5818 29.3916 31.6646L29.1787 31.4253C28.9591 31.1793 29.0885 30.7876 29.4111 30.7202L32.126 30.1558C32.772 30.0215 33.3209 30.6366 33.1143 31.2632L32.2461 33.896C32.1428 34.2092 31.7393 34.2931 31.5195 34.0474L31.208 33.6987C29.4654 34.9921 27.3973 35.7993 25.2158 36.0142C22.4446 36.2871 19.6649 35.5905 17.3496 34.0435C15.0343 32.4964 13.3269 30.1945 12.5186 27.5298C11.7103 24.8652 11.8504 22.0027 12.916 19.4302C13.9816 16.8576 15.9065 14.7341 18.3623 13.4214Z" fill="white"/>
<defs>
<linearGradient id="paint0_linear_928_410" x1="24.0003" y1="6.85742" x2="24.0003" y2="41.1431" gradientUnits="userSpaceOnUse">
<stop stop-color="#FEC128"/>
<stop offset="1" stop-color="#FF771A"/>
</linearGradient>
</defs>
</svg>
