<svg width="120" height="120" viewBox="0 0 120 120" fill="none" xmlns="http://www.w3.org/2000/svg">
<rect width="120" height="120" rx="34.2857" fill="white"/>
<rect x="17.1426" y="17.1429" width="85.7143" height="85.7143" rx="34.2857" fill="url(#paint0_linear_942_399)"/>
<path d="M67.1625 74.7914H54.6438C50.2194 74.7914 46.6328 71.2047 46.6328 66.7804C46.6328 61.2148 52.1685 57.3451 57.3955 59.2569L58.2243 59.56C60.0075 60.2122 61.9658 60.2023 63.7424 59.5321L64.3387 59.3071C69.4995 57.3601 75.0359 61.0973 75.1601 66.6117C75.2611 71.0991 71.651 74.7914 67.1625 74.7914Z" fill="white"/>
<circle cx="60.3276" cy="49.8754" r="8.08539" fill="white"/>
<circle cx="60.536" cy="49.8215" r="2.67857" fill="#FEA523"/>
<path d="M45.9062 33.5535C52.0458 30.2719 59.1332 29.2198 65.9609 30.5779C72.7887 31.9361 78.9342 35.6204 83.3506 41.0018C87.0843 45.5514 89.3872 51.0766 90.0098 56.8826C90.1987 58.6475 88.7418 60.0905 86.9668 60.0906H86.6074C84.8323 60.0906 83.4161 58.6447 83.1719 56.8865C82.5843 52.6542 80.8403 48.6423 78.1035 45.3074C74.6834 41.14 69.9243 38.2869 64.6367 37.2352C59.3491 36.1834 53.8601 36.9985 49.1055 39.5399C44.3511 42.0812 40.6246 46.1921 38.5615 51.1727C36.4984 56.1535 36.226 61.6962 37.791 66.8553C39.356 72.0142 42.662 76.4705 47.1445 79.4656C51.627 82.4607 57.009 83.8094 62.374 83.2811C66.3921 82.8853 70.2141 81.4543 73.4814 79.16L72.9473 78.5613C72.3981 77.946 72.7208 76.9666 73.5283 76.7986L80.3145 75.3875C81.9293 75.0521 83.3018 76.5906 82.7852 78.157L80.6143 84.7391C80.3559 85.5222 79.3471 85.7321 78.7979 85.117L78.0244 84.2508C73.6678 87.4847 68.4941 89.4987 63.04 90.0359C56.112 90.7183 49.1614 88.9777 43.373 85.1102C37.5847 81.2425 33.3167 75.4868 31.2959 68.825C29.2751 62.1632 29.626 55.0066 32.29 48.575C34.9541 42.1434 39.7667 36.8352 45.9062 33.5535Z" fill="white"/>
<defs>
<linearGradient id="paint0_linear_942_399" x1="59.9997" y1="17.1429" x2="59.9997" y2="102.857" gradientUnits="userSpaceOnUse">
<stop stop-color="#FEC128"/>
<stop offset="1" stop-color="#FF771A"/>
</linearGradient>
</defs>
</svg>
