<svg width="20" height="20" viewBox="0 0 20 20" fill="none" xmlns="http://www.w3.org/2000/svg">
<path fill-rule="evenodd" clip-rule="evenodd" d="M19.3699 0.522317C19.3229 0.434317 19.2519 0.362317 19.1639 0.315317C17.0779 -0.794683 4.59887 3.07332 1.37087 4.93532C0.529872 5.42032 0.154872 5.99032 0.257872 6.62632C0.554872 8.46832 5.51787 9.86432 8.21087 10.4893L13.2679 5.43332C13.5609 5.14032 14.0359 5.14032 14.3289 5.43332C14.6219 5.72632 14.6219 6.20132 14.3289 6.49432L9.22287 11.5983C9.86387 14.3193 11.2449 19.1343 13.0579 19.4263C13.1259 19.4373 13.1939 19.4433 13.2609 19.4433C13.8149 19.4433 14.3149 19.0633 14.7479 18.3133C16.6099 15.0883 20.4809 2.61132 19.3699 0.522317Z" fill="#FFFDFD"/>
</svg>
