<svg width="35" height="35" viewBox="0 0 35 35" fill="none" xmlns="http://www.w3.org/2000/svg">
<rect width="35" height="35" rx="12" fill="#FF7F00" fill-opacity="0.08"/>
<path d="M26.47 11.7025L18.22 7.18843C17.9996 7.06663 17.7518 7.00275 17.5 7.00275C17.2482 7.00275 17.0004 7.06663 16.78 7.18843L8.53 11.7044C8.2944 11.8333 8.09772 12.0231 7.96052 12.254C7.82331 12.4848 7.75061 12.7483 7.75 13.0169V21.9831C7.75061 22.2517 7.82331 22.5152 7.96052 22.746C8.09772 22.9769 8.2944 23.1667 8.53 23.2956L16.78 27.8116C17.0004 27.9334 17.2482 27.9972 17.5 27.9972C17.7518 27.9972 17.9996 27.9334 18.22 27.8116L26.47 23.2956C26.7056 23.1667 26.9023 22.9769 27.0395 22.746C27.1767 22.5152 27.2494 22.2517 27.25 21.9831V13.0178C27.2499 12.7488 27.1774 12.4847 27.0402 12.2533C26.903 12.0219 26.706 11.8316 26.47 11.7025ZM17.5 8.50093L25.0319 12.6259L17.5 16.7509L9.96812 12.6259L17.5 8.50093ZM9.25 13.9384L16.75 18.0428V26.0856L9.25 21.9841V13.9384ZM18.25 26.0856V18.0466L25.75 13.9384V21.9803L18.25 26.0856Z" fill="black"/>
</svg>
