<svg width="35" height="35" viewBox="0 0 35 35" fill="none" xmlns="http://www.w3.org/2000/svg">
<rect width="35" height="35" rx="12" fill="#FF7F00" fill-opacity="0.08"/>
<path d="M27.9234 14.9931C27.8297 14.7048 27.6527 14.4508 27.4148 14.2629C27.1769 14.0751 26.8887 13.9618 26.5866 13.9375L21.0553 13.4912L18.9197 8.32654C18.8042 8.04512 18.6076 7.8044 18.355 7.63498C18.1023 7.46557 17.805 7.37511 17.5008 7.37511C17.1966 7.37511 16.8992 7.46557 16.6466 7.63498C16.3939 7.8044 16.1974 8.04512 16.0819 8.32654L13.9481 13.4903L8.41406 13.9375C8.11141 13.9631 7.82305 14.0774 7.5851 14.2662C7.34714 14.4549 7.17019 14.7097 7.0764 14.9986C6.9826 15.2875 6.97615 15.5976 7.05784 15.8901C7.13953 16.1827 7.30573 16.4446 7.53562 16.6431L11.7544 20.2834L10.4691 25.7265C10.3972 26.0223 10.4148 26.3327 10.5196 26.6183C10.6245 26.904 10.8118 27.1521 11.058 27.3311C11.3041 27.5101 11.5978 27.612 11.9019 27.6237C12.206 27.6355 12.5067 27.5566 12.7659 27.3972L17.5003 24.4834L22.2375 27.3972C22.4968 27.5548 22.7969 27.6321 23.1001 27.6195C23.4032 27.6068 23.6958 27.5048 23.9411 27.3262C24.1864 27.1475 24.3733 26.9003 24.4784 26.6157C24.5835 26.331 24.602 26.0217 24.5316 25.7265L23.2416 20.2825L27.4603 16.6422C27.6921 16.444 27.8598 16.1815 27.9422 15.8879C28.0247 15.5944 28.0181 15.2829 27.9234 14.9931ZM26.4853 15.5059L21.9197 19.4434C21.8156 19.5332 21.7381 19.6498 21.6958 19.7806C21.6535 19.9114 21.6479 20.0512 21.6797 20.185L23.0747 26.0725C23.0783 26.0806 23.0787 26.0898 23.0757 26.0982C23.0727 26.1065 23.0667 26.1134 23.0587 26.1175C23.0419 26.1306 23.0372 26.1278 23.0231 26.1175L17.8931 22.9628C17.775 22.8902 17.639 22.8517 17.5003 22.8517C17.3616 22.8517 17.2256 22.8902 17.1075 22.9628L11.9775 26.1194C11.9634 26.1278 11.9597 26.1306 11.9419 26.1194C11.934 26.1153 11.9279 26.1084 11.9249 26.1C11.922 26.0917 11.9223 26.0825 11.9259 26.0744L13.3209 20.1869C13.3527 20.0531 13.3472 19.9132 13.3048 19.7824C13.2625 19.6517 13.1851 19.535 13.0809 19.4453L8.51531 15.5078C8.50406 15.4984 8.49374 15.49 8.50312 15.4609C8.51249 15.4319 8.51999 15.4356 8.53406 15.4337L14.5266 14.95C14.664 14.9382 14.7955 14.8887 14.9067 14.807C15.0178 14.7253 15.1043 14.6145 15.1566 14.4869L17.4647 8.89841C17.4722 8.88248 17.475 8.87498 17.4975 8.87498C17.52 8.87498 17.5228 8.88248 17.5303 8.89841L19.8441 14.4869C19.8968 14.6146 19.9838 14.7252 20.0955 14.8066C20.2072 14.888 20.3391 14.937 20.4769 14.9481L26.4694 15.4319C26.4834 15.4319 26.4919 15.4319 26.5003 15.459C26.5087 15.4862 26.5003 15.4965 26.4853 15.5059Z" fill="black"/>
</svg>
