<svg width="120" height="120" viewBox="0 0 120 120" fill="none" xmlns="http://www.w3.org/2000/svg">
<rect width="120" height="120" rx="34.2857" fill="white"/>
<rect x="17.1426" y="17.1428" width="85.7143" height="85.7143" rx="34.2857" fill="url(#paint0_linear_942_364)"/>
<mask id="path-3-inside-1_942_364" fill="white">
<path d="M86.0782 72.2619C88.1968 69.0042 89.5981 65.3297 90.1884 61.4842C90.7787 57.6386 90.5443 53.7108 89.5009 49.9636C88.4576 46.2164 86.6293 42.7363 84.1385 39.7561C81.6477 36.7758 78.5518 34.3643 75.058 32.6828C71.5641 31.0014 67.753 30.0888 63.8796 30.0062C60.0063 29.9235 56.16 30.6727 52.5982 32.2036C49.0365 33.7345 45.8414 36.0118 43.2268 38.8831C40.6122 41.7544 38.6384 45.1535 37.4375 48.8528L39.7315 49.6039C40.8258 46.2327 42.6245 43.1351 45.0073 40.5185C47.39 37.9018 50.3017 35.8265 53.5475 34.4314C56.7934 33.0362 60.2986 32.3535 63.8284 32.4288C67.3582 32.5041 70.8313 33.3358 74.0153 34.8681C77.1992 36.4004 80.0206 38.5981 82.2905 41.314C84.5604 44.0299 86.2265 47.2014 87.1773 50.6162C88.1281 54.0311 88.3417 57.6105 87.8038 61.115C87.2658 64.6194 85.9888 67.9681 84.0581 70.9368L86.0782 72.2619Z"/>
</mask>
<path d="M86.0782 72.2619C88.1968 69.0042 89.5981 65.3297 90.1884 61.4842C90.7787 57.6386 90.5443 53.7108 89.5009 49.9636C88.4576 46.2164 86.6293 42.7363 84.1385 39.7561C81.6477 36.7758 78.5518 34.3643 75.058 32.6828C71.5641 31.0014 67.753 30.0888 63.8796 30.0062C60.0063 29.9235 56.16 30.6727 52.5982 32.2036C49.0365 33.7345 45.8414 36.0118 43.2268 38.8831C40.6122 41.7544 38.6384 45.1535 37.4375 48.8528L39.7315 49.6039C40.8258 46.2327 42.6245 43.1351 45.0073 40.5185C47.39 37.9018 50.3017 35.8265 53.5475 34.4314C56.7934 33.0362 60.2986 32.3535 63.8284 32.4288C67.3582 32.5041 70.8313 33.3358 74.0153 34.8681C77.1992 36.4004 80.0206 38.5981 82.2905 41.314C84.5604 44.0299 86.2265 47.2014 87.1773 50.6162C88.1281 54.0311 88.3417 57.6105 87.8038 61.115C87.2658 64.6194 85.9888 67.9681 84.0581 70.9368L86.0782 72.2619Z" stroke="white" stroke-width="6.42857" mask="url(#path-3-inside-1_942_364)"/>
<path d="M48.7987 64.0398L45.7109 65.4121L46.649 75.9654L55.7895 77.6346C58.5965 78.1471 61.4944 77.6592 63.9788 76.2556L79.8508 67.2884C80.4182 66.9678 80.6069 66.2408 80.2671 65.6847C79.8741 65.0417 79.0947 64.7477 78.3751 64.9711L76.9251 65.421C74.1869 66.2709 71.58 67.4969 69.1791 69.0642L66.1663 71.0309C64.9845 71.8023 63.6037 72.2131 62.1923 72.2131H55.0917C54.2498 72.2131 53.5673 71.5306 53.5673 70.6888L64.9702 70.2741C65.8049 70.2438 66.4658 69.5583 66.4658 68.723C66.4658 67.8659 65.771 67.171 64.9138 67.171H61.0719L53.2063 63.9698C51.7887 63.3929 50.1973 63.4182 48.7987 64.0398Z" fill="white"/>
<path d="M39.7325 64.4742H30V79.8352L47.0026 79.3662L45.5955 63.3016H39.7325V64.4742Z" fill="white"/>
<path d="M41.5176 64.3289L44.4648 64.3289L45.5363 78.2141L42.8576 78.2141L42.1876 71.2715L41.5176 64.3289Z" fill="#FF851D"/>
<circle cx="39.614" cy="76.9037" r="1.17259" fill="#FF881D"/>
<path d="M51.7868 45.5006L57.4382 48.9445L58.7628 58.7462L48.3429 62.8964L43.9277 61.3953L44.4576 48.9445L51.7868 45.5006Z" fill="white"/>
<path d="M71.0371 53.6247L81.8102 49.1212L82.7815 62.0136L71.302 66.3404L71.0371 53.6247Z" fill="white"/>
<path d="M65.5612 50.1819L77.3055 46.2075L81.897 49.1911L71.124 53.7134L65.5612 50.1819Z" fill="white"/>
<path d="M66.0923 62.9848L65.5625 50.1808L71.0373 53.5366L71.3022 66.429L66.0923 62.9848Z" fill="white"/>
<path d="M66.1789 34.286L74.3028 39.3193L73.8613 60.6005L67.8566 61.8368L57.1719 59.011V41.3503L66.1789 34.286Z" fill="white"/>
<circle cx="36.8181" cy="53.3345" r="1.89339" stroke="#FEFFFF" stroke-width="1.60714"/>
<path d="M81.0653 73.184C81.3675 72.3672 82.5226 72.3672 82.8248 73.184L83.4106 74.7669C83.5056 75.0237 83.708 75.2261 83.9648 75.3211L85.5477 75.9068C86.3644 76.2091 86.3644 77.3642 85.5477 77.6664L83.9648 78.2521C83.708 78.3471 83.5056 78.5496 83.4106 78.8064L82.8248 80.3893C82.5226 81.206 81.3675 81.206 81.0653 80.3893L80.4796 78.8064C80.3845 78.5496 80.1821 78.3471 79.9253 78.2521L78.3424 77.6664C77.5257 77.3642 77.5257 76.2091 78.3424 75.9068L79.9253 75.3211C80.1821 75.2261 80.3845 75.0237 80.4796 74.7669L81.0653 73.184Z" fill="white"/>
<path d="M61.0723 40.1786L66.4294 35.8929L72.3222 39.6429L65.8937 40.1786L61.0723 40.1786Z" fill="#FEB025"/>
<path d="M50.3574 52.5L56.2503 50.8928V57.8571L50.3574 60V52.5Z" fill="#FEA723"/>
<path d="M66.9648 54.1072L70.7148 55.1786V63.2143L66.9648 61.6072V54.1072Z" fill="#FEA723"/>
<defs>
<linearGradient id="paint0_linear_942_364" x1="59.9997" y1="17.1428" x2="59.9997" y2="102.857" gradientUnits="userSpaceOnUse">
<stop stop-color="#FEC128"/>
<stop offset="1" stop-color="#FF771A"/>
</linearGradient>
</defs>
</svg>
