<svg width="48" height="48" viewBox="0 0 48 48" fill="none" xmlns="http://www.w3.org/2000/svg">
<rect width="48" height="48" rx="13.7143" fill="white"/>
<rect x="6.85742" y="6.85718" width="34.2857" height="34.2857" rx="13.7143" fill="url(#paint0_linear_928_390)"/>
<mask id="path-3-inside-1_928_390" fill="white">
<path d="M34.4317 28.9047C35.2791 27.6017 35.8396 26.1319 36.0757 24.5937C36.3119 23.0555 36.2181 21.4843 35.8008 19.9855C35.3834 18.4866 34.6521 17.0945 33.6558 15.9024C32.6595 14.7103 31.4211 13.7457 30.0236 13.0731C28.6261 12.4006 27.1016 12.0355 25.5522 12.0025C24.0029 11.9694 22.4644 12.2691 21.0397 12.8815C19.615 13.4938 18.3369 14.4047 17.2911 15.5533C16.2453 16.7018 15.4557 18.0614 14.9754 19.5411L15.893 19.8416C16.3307 18.4931 17.0502 17.254 18.0033 16.2074C18.9564 15.1607 20.1211 14.3306 21.4194 13.7725C22.7178 13.2145 24.1198 12.9414 25.5318 12.9715C26.9437 13.0016 28.3329 13.3343 29.6065 13.9472C30.8801 14.5602 32.0086 15.4392 32.9166 16.5256C33.8245 17.6119 34.491 18.8805 34.8713 20.2465C35.2516 21.6124 35.3371 23.0442 35.1219 24.446C34.9067 25.8478 34.3959 27.1872 33.6236 28.3747L34.4317 28.9047Z"/>
</mask>
<path d="M34.4317 28.9047C35.2791 27.6017 35.8396 26.1319 36.0757 24.5937C36.3119 23.0555 36.2181 21.4843 35.8008 19.9855C35.3834 18.4866 34.6521 17.0945 33.6558 15.9024C32.6595 14.7103 31.4211 13.7457 30.0236 13.0731C28.6261 12.4006 27.1016 12.0355 25.5522 12.0025C24.0029 11.9694 22.4644 12.2691 21.0397 12.8815C19.615 13.4938 18.3369 14.4047 17.2911 15.5533C16.2453 16.7018 15.4557 18.0614 14.9754 19.5411L15.893 19.8416C16.3307 18.4931 17.0502 17.254 18.0033 16.2074C18.9564 15.1607 20.1211 14.3306 21.4194 13.7725C22.7178 13.2145 24.1198 12.9414 25.5318 12.9715C26.9437 13.0016 28.3329 13.3343 29.6065 13.9472C30.8801 14.5602 32.0086 15.4392 32.9166 16.5256C33.8245 17.6119 34.491 18.8805 34.8713 20.2465C35.2516 21.6124 35.3371 23.0442 35.1219 24.446C34.9067 25.8478 34.3959 27.1872 33.6236 28.3747L34.4317 28.9047Z" stroke="white" stroke-width="2.57143" mask="url(#path-3-inside-1_928_390)"/>
<path d="M19.5203 25.6159L18.2852 26.1649L18.6604 30.3862L22.3166 31.0539C23.4394 31.2589 24.5986 31.0637 25.5923 30.5023L31.9411 26.9154C32.168 26.7872 32.2435 26.4964 32.1076 26.2739C31.9504 26.0167 31.6387 25.8991 31.3508 25.9885L30.7708 26.1685C29.6755 26.5084 28.6328 26.9988 27.6724 27.6257L26.4673 28.4124C25.9946 28.721 25.4422 28.8853 24.8777 28.8853H22.0375C21.7007 28.8853 21.4277 28.6123 21.4277 28.2755L25.9888 28.1097C26.3227 28.0975 26.5871 27.8234 26.5871 27.4893C26.5871 27.1464 26.3092 26.8684 25.9663 26.8684H24.4295L21.2833 25.588C20.7163 25.3572 20.0797 25.3673 19.5203 25.6159Z" fill="white"/>
<path d="M15.893 25.7898H12V31.9342L18.801 31.7466L18.2382 25.3208H15.893V25.7898Z" fill="white"/>
<path d="M16.6064 25.7317L17.7853 25.7317L18.2139 31.2858L17.1425 31.2858L16.8745 28.5087L16.6064 25.7317Z" fill="#FF851D"/>
<circle cx="15.846" cy="30.7615" r="0.469037" fill="#FF881D"/>
<path d="M20.7149 18.2004L22.9755 19.578L23.5053 23.4987L19.3374 25.1588L17.5713 24.5583L17.7832 19.578L20.7149 18.2004Z" fill="white"/>
<path d="M28.415 21.4501L32.7243 19.6487L33.1128 24.8056L28.521 26.5364L28.415 21.4501Z" fill="white"/>
<path d="M26.2241 20.0729L30.9218 18.4832L32.7584 19.6766L28.4492 21.4855L26.2241 20.0729Z" fill="white"/>
<path d="M26.4365 25.1941L26.2246 20.0725L28.4145 21.4149L28.5205 26.5718L26.4365 25.1941Z" fill="white"/>
<path d="M26.4719 13.7144L29.7215 15.7277L29.5449 24.2402L27.143 24.7347L22.8691 23.6044V16.5401L26.4719 13.7144Z" fill="white"/>
<circle cx="14.7272" cy="21.3339" r="0.757357" stroke="#FEFFFF" stroke-width="0.642857"/>
<path d="M32.4269 29.2735C32.5478 28.9468 33.0098 28.9469 33.1307 29.2735L33.365 29.9067C33.403 30.0094 33.484 30.0904 33.5867 30.1284L34.2199 30.3627C34.5466 30.4836 34.5466 30.9456 34.2199 31.0665L33.5867 31.3008C33.484 31.3388 33.403 31.4198 33.365 31.5225L33.1307 32.1557C33.0098 32.4824 32.5478 32.4824 32.4269 32.1557L32.1926 31.5225C32.1546 31.4198 32.0736 31.3388 31.9709 31.3008L31.3377 31.0665C31.0111 30.9456 31.0111 30.4836 31.3377 30.3627L31.9709 30.1284C32.0736 30.0904 32.1546 30.0094 32.1926 29.9067L32.4269 29.2735Z" fill="white"/>
<path d="M24.4287 16.0715L26.5716 14.3572L28.9287 15.8573L26.3573 16.0715L24.4287 16.0715Z" fill="#FEB025"/>
<path d="M20.1436 21L22.5007 20.3572V23.1429L20.1436 24V21Z" fill="#FEA723"/>
<path d="M26.7852 21.6428L28.2852 22.0714V25.2857L26.7852 24.6428V21.6428Z" fill="#FEA723"/>
<defs>
<linearGradient id="paint0_linear_928_390" x1="24.0003" y1="6.85718" x2="24.0003" y2="41.1429" gradientUnits="userSpaceOnUse">
<stop stop-color="#FEC128"/>
<stop offset="1" stop-color="#FF771A"/>
</linearGradient>
</defs>
</svg>
