<svg width="335" height="335" viewBox="0 0 335 335" fill="none" xmlns="http://www.w3.org/2000/svg">
<g filter="url(#filter0_d_211_212)">
<rect x="107.5" y="82" width="120" height="120" rx="34.2857" fill="white" shape-rendering="crispEdges"/>
<g filter="url(#filter1_d_211_212)">
<rect x="124.643" y="99.1429" width="85.7143" height="85.7143" rx="34.2857" fill="url(#paint0_linear_211_212)"/>
</g>
<mask id="path-3-inside-1_211_212" fill="white">
<path d="M193.578 154.262C195.697 151.004 197.098 147.33 197.688 143.484C198.279 139.639 198.044 135.711 197.001 131.964C195.958 128.216 194.129 124.736 191.639 121.756C189.148 118.776 186.052 116.364 182.558 114.683C179.064 113.001 175.253 112.089 171.38 112.006C167.506 111.924 163.66 112.673 160.098 114.204C156.536 115.735 153.341 118.012 150.727 120.883C148.112 123.754 146.138 127.153 144.938 130.853L147.231 131.604C148.326 128.233 150.125 125.135 152.507 122.518C154.89 119.902 157.802 117.827 161.048 116.431C164.293 115.036 167.799 114.353 171.328 114.429C174.858 114.504 178.331 115.336 181.515 116.868C184.699 118.4 187.521 120.598 189.79 123.314C192.06 126.03 193.726 129.201 194.677 132.616C195.628 136.031 195.842 139.61 195.304 143.115C194.766 146.619 193.489 149.968 191.558 152.937L193.578 154.262Z"/>
</mask>
<path d="M193.578 154.262C195.697 151.004 197.098 147.33 197.688 143.484C198.279 139.639 198.044 135.711 197.001 131.964C195.958 128.216 194.129 124.736 191.639 121.756C189.148 118.776 186.052 116.364 182.558 114.683C179.064 113.001 175.253 112.089 171.38 112.006C167.506 111.924 163.66 112.673 160.098 114.204C156.536 115.735 153.341 118.012 150.727 120.883C148.112 123.754 146.138 127.153 144.938 130.853L147.231 131.604C148.326 128.233 150.125 125.135 152.507 122.518C154.89 119.902 157.802 117.827 161.048 116.431C164.293 115.036 167.799 114.353 171.328 114.429C174.858 114.504 178.331 115.336 181.515 116.868C184.699 118.4 187.521 120.598 189.79 123.314C192.06 126.03 193.726 129.201 194.677 132.616C195.628 136.031 195.842 139.61 195.304 143.115C194.766 146.619 193.489 149.968 191.558 152.937L193.578 154.262Z" stroke="white" stroke-width="6.42857" mask="url(#path-3-inside-1_211_212)"/>
<path d="M156.299 146.04L153.211 147.412L154.149 157.965L163.289 159.635C166.097 160.147 168.994 159.659 171.479 158.256L187.351 149.288C187.918 148.968 188.107 148.241 187.767 147.685C187.374 147.042 186.595 146.748 185.875 146.971L184.425 147.421C181.687 148.271 179.08 149.497 176.679 151.064L173.666 153.031C172.484 153.802 171.104 154.213 169.692 154.213H162.592C161.75 154.213 161.067 153.531 161.067 152.689L172.47 152.274C173.305 152.244 173.966 151.558 173.966 150.723C173.966 149.866 173.271 149.171 172.414 149.171H168.572L160.706 145.97C159.289 145.393 157.697 145.418 156.299 146.04Z" fill="white"/>
<path d="M147.233 146.474H137.5V161.835L154.503 161.366L153.095 145.302H147.233V146.474Z" fill="white"/>
<path d="M149.018 146.329L151.965 146.329L153.036 160.214L150.358 160.214L149.688 153.271L149.018 146.329Z" fill="#FF851D"/>
<circle cx="147.114" cy="158.904" r="1.17259" fill="#FF881D"/>
<path d="M159.287 127.501L164.938 130.944L166.263 140.746L155.843 144.896L151.428 143.395L151.958 130.944L159.287 127.501Z" fill="white"/>
<path d="M178.537 135.625L189.31 131.121L190.281 144.014L178.802 148.34L178.537 135.625Z" fill="white"/>
<path d="M173.061 132.182L184.806 128.208L189.397 131.191L178.624 135.713L173.061 132.182Z" fill="white"/>
<path d="M173.592 144.985L173.062 132.181L178.537 135.537L178.802 148.429L173.592 144.985Z" fill="white"/>
<path d="M173.679 116.286L181.803 121.319L181.361 142.601L175.357 143.837L164.672 141.011V123.35L173.679 116.286Z" fill="white"/>
<circle cx="144.318" cy="135.335" r="1.89339" stroke="#FEFFFF" stroke-width="1.60714"/>
<path d="M188.565 155.184C188.868 154.367 190.023 154.367 190.325 155.184L190.911 156.767C191.006 157.024 191.208 157.226 191.465 157.321L193.048 157.907C193.864 158.209 193.864 159.364 193.048 159.666L191.465 160.252C191.208 160.347 191.006 160.55 190.911 160.806L190.325 162.389C190.023 163.206 188.868 163.206 188.565 162.389L187.98 160.806C187.885 160.55 187.682 160.347 187.425 160.252L185.842 159.666C185.026 159.364 185.026 158.209 185.842 157.907L187.425 157.321C187.682 157.226 187.885 157.024 187.98 156.767L188.565 155.184Z" fill="white"/>
<path d="M168.572 122.179L173.929 117.893L179.822 121.643L173.394 122.179L168.572 122.179Z" fill="#FEB025"/>
<path d="M157.857 134.5L163.75 132.893V139.857L157.857 142V134.5Z" fill="#FEA723"/>
<path d="M174.465 136.107L178.215 137.179V145.214L174.465 143.607V136.107Z" fill="#FEA723"/>
</g>
<defs>
<filter id="filter0_d_211_212" x="0.357147" y="0.57143" width="334.286" height="334.286" filterUnits="userSpaceOnUse" color-interpolation-filters="sRGB">
<feFlood flood-opacity="0" result="BackgroundImageFix"/>
<feColorMatrix in="SourceAlpha" type="matrix" values="0 0 0 0 0 0 0 0 0 0 0 0 0 0 0 0 0 0 127 0" result="hardAlpha"/>
<feOffset dy="25.7143"/>
<feGaussianBlur stdDeviation="53.5714"/>
<feComposite in2="hardAlpha" operator="out"/>
<feColorMatrix type="matrix" values="0 0 0 0 1 0 0 0 0 0.466667 0 0 0 0 0.101961 0 0 0 0.12 0"/>
<feBlend mode="normal" in2="BackgroundImageFix" result="effect1_dropShadow_211_212"/>
<feBlend mode="normal" in="SourceGraphic" in2="effect1_dropShadow_211_212" result="shape"/>
</filter>
<filter id="filter1_d_211_212" x="120.357" y="99.1429" width="94.2863" height="94.2857" filterUnits="userSpaceOnUse" color-interpolation-filters="sRGB">
<feFlood flood-opacity="0" result="BackgroundImageFix"/>
<feColorMatrix in="SourceAlpha" type="matrix" values="0 0 0 0 0 0 0 0 0 0 0 0 0 0 0 0 0 0 127 0" result="hardAlpha"/>
<feOffset dy="4.28571"/>
<feGaussianBlur stdDeviation="2.14286"/>
<feComposite in2="hardAlpha" operator="out"/>
<feColorMatrix type="matrix" values="0 0 0 0 1 0 0 0 0 0.466667 0 0 0 0 0.101961 0 0 0 0.38 0"/>
<feBlend mode="normal" in2="BackgroundImageFix" result="effect1_dropShadow_211_212"/>
<feBlend mode="normal" in="SourceGraphic" in2="effect1_dropShadow_211_212" result="shape"/>
</filter>
<linearGradient id="paint0_linear_211_212" x1="167.5" y1="99.1429" x2="167.5" y2="184.857" gradientUnits="userSpaceOnUse">
<stop stop-color="#FEC128"/>
<stop offset="1" stop-color="#FF771A"/>
</linearGradient>
</defs>
</svg>
