<svg width="24" height="25" viewBox="0 0 24 25" fill="none" xmlns="http://www.w3.org/2000/svg">
<path fill-rule="evenodd" clip-rule="evenodd" d="M14.109 14.5631C14.109 14.9771 13.773 15.3131 13.359 15.3131C12.945 15.3131 12.609 14.9771 12.609 14.5631V9.27413C12.609 8.86013 12.945 8.52413 13.359 8.52413C13.773 8.52413 14.109 8.86013 14.109 9.27413V14.5631ZM21.5 13.5691C20.451 13.5691 19.982 12.7911 19.982 12.0181C19.982 11.2471 20.451 10.4681 21.5 10.4681C21.776 10.4681 22 10.2451 22 9.96813C22 5.11313 21.595 3.31513 14.109 3.05713V6.27413C14.109 6.68813 13.773 7.02413 13.359 7.02413C12.945 7.02413 12.609 6.68813 12.609 6.27413V3.02613C12.403 3.02513 12.216 3.01913 12 3.01913C2.455 3.01913 2 4.68913 2 9.96813C2 10.2451 2.224 10.4681 2.5 10.4681C3.549 10.4681 4.018 11.2471 4.018 12.0181C4.018 12.4281 3.88 12.8231 3.637 13.0991C3.364 13.4111 2.982 13.5691 2.5 13.5691C2.224 13.5691 2 13.7921 2 14.0691C2 19.3491 2.455 21.0191 12 21.0191C12.216 21.0191 12.403 21.0141 12.609 21.0121V17.5631C12.609 17.1491 12.945 16.8131 13.359 16.8131C13.773 16.8131 14.109 17.1491 14.109 17.5631V20.9811C21.595 20.7231 22 18.9251 22 14.0691C22 13.7921 21.776 13.5691 21.5 13.5691Z" fill="#575757"/>
</svg>
