<svg width="48" height="48" viewBox="0 0 48 48" fill="none" xmlns="http://www.w3.org/2000/svg">
<rect width="48" height="48" rx="13.7143" fill="white"/>
<rect x="6.85742" y="6.85742" width="34.2857" height="34.2857" rx="13.7143" fill="url(#paint0_linear_928_420)"/>
<path d="M16.8564 21.0733C16.5582 20.1747 17.0448 19.2045 17.9434 18.9062L28.0854 15.5399C28.9839 15.2416 29.9542 15.7283 30.2524 16.6268L31.516 20.4336C31.8142 21.3321 31.3276 22.3023 30.429 22.6006L20.287 25.967C19.3885 26.2652 18.4183 25.7786 18.12 24.88L16.8564 21.0733Z" fill="#FBFDFF"/>
<path d="M16.1182 22.5489C15.8199 21.6503 16.3066 20.6801 17.2051 20.3818L27.3471 17.0155C28.2457 16.7172 29.2159 17.2038 29.5141 18.1024L30.7777 21.9091C31.0759 22.8077 30.5893 23.7779 29.6907 24.0762L19.5488 27.4426C18.6502 27.7408 17.68 27.2542 17.3817 26.3556L16.1182 22.5489Z" fill="#F65859"/>
<rect x="14.5713" y="19.0991" width="18.5931" height="13.6154" rx="1.71429" fill="#F1F8FF"/>
<path d="M27.8486 25.8801C27.8486 24.7598 28.7568 23.8516 29.8772 23.8516H33.7498V27.9086H29.8772C28.7568 27.9086 27.8486 27.0004 27.8486 25.8801V25.8801Z" fill="#F04852"/>
<path d="M28.5859 25.907C28.5859 25.1793 29.1759 24.5894 29.9036 24.5894H33.8564V27.2246H29.9036C29.1759 27.2246 28.5859 26.6347 28.5859 25.907V25.907Z" fill="#ECF6FF"/>
<path d="M16.0459 30.1216H23.2379C23.5435 30.1216 23.7912 30.3693 23.7912 30.6748V30.6748C23.7912 30.9804 23.5435 31.228 23.2379 31.228H16.0459V30.1216Z" fill="#F4253B"/>
<path d="M31.9053 31.228L28.7703 31.228C28.4647 31.228 28.2171 30.9803 28.2171 30.6748V30.6748C28.2171 30.3693 28.4647 30.1216 28.7703 30.1216L31.9053 30.1216L31.9053 31.228Z" fill="#EA3147"/>
<rect x="25.3174" y="30.0796" width="1.4654" height="1.10646" rx="0.553232" fill="#F11433"/>
<circle cx="29.8775" cy="25.8804" r="0.553232" fill="#F04A54"/>
<path d="M16.415 24.774V22.6157C16.415 21.6689 17.1826 20.9014 18.1293 20.9014H22.3162" stroke="#F94D50" stroke-width="1.07143" stroke-linecap="square"/>
<defs>
<linearGradient id="paint0_linear_928_420" x1="24.0003" y1="6.85742" x2="24.0003" y2="41.1431" gradientUnits="userSpaceOnUse">
<stop stop-color="#FD7566"/>
<stop offset="1" stop-color="#F1082B"/>
</linearGradient>
</defs>
</svg>
