<svg width="120" height="120" viewBox="0 0 120 120" fill="none" xmlns="http://www.w3.org/2000/svg">
<rect width="120" height="120" rx="34.2857" fill="white"/>
<rect x="17.1426" y="17.1428" width="85.7143" height="85.7143" rx="34.2857" fill="url(#paint0_linear_942_384)"/>
<path d="M42.1392 52.6837C41.3935 50.4373 42.6101 48.0117 44.8566 47.2661L70.2115 38.8502C72.4579 38.1045 74.8834 39.3211 75.6291 41.5676L78.788 51.0844C79.5336 53.3308 78.317 55.7564 76.0706 56.502L50.7157 64.9179C48.4692 65.6636 46.0437 64.447 45.2981 62.2005L42.1392 52.6837Z" fill="#FBFDFF"/>
<path d="M40.2954 56.3718C39.5498 54.1254 40.7664 51.6999 43.0128 50.9542L68.3677 42.5383C70.6141 41.7926 73.0397 43.0092 73.7853 45.2557L76.9442 54.7725C77.6899 57.0189 76.4732 59.4445 74.2268 60.1901L48.8719 68.6061C46.6255 69.3517 44.1999 68.1351 43.4543 65.8887L40.2954 56.3718Z" fill="#F65859"/>
<rect x="36.4277" y="47.7482" width="46.4828" height="34.0386" rx="4.28571" fill="#F1F8FF"/>
<path d="M69.623 64.7007C69.623 61.8999 71.8935 59.6294 74.6943 59.6294H84.3759V69.772H74.6943C71.8935 69.772 69.623 67.5015 69.623 64.7007V64.7007Z" fill="#F04852"/>
<path d="M71.4648 64.7674C71.4648 62.9482 72.9396 61.4734 74.7589 61.4734H84.6411V68.0615H74.7589C72.9396 68.0615 71.4648 66.5867 71.4648 64.7674V64.7674Z" fill="#ECF6FF"/>
<path d="M40.1152 75.3042H58.0953C58.8591 75.3042 59.4784 75.9234 59.4784 76.6873V76.6873C59.4784 77.4511 58.8591 78.0704 58.0953 78.0704H40.1152V75.3042Z" fill="#F4253B"/>
<path d="M79.7637 78.0703L71.9262 78.0703C71.1624 78.0703 70.5431 77.4511 70.5431 76.6872V76.6872C70.5431 75.9234 71.1624 75.3041 71.9262 75.3041L79.7637 75.3042L79.7637 78.0703Z" fill="#EA3147"/>
<rect x="63.2949" y="75.1987" width="3.6635" height="2.76616" rx="1.38308" fill="#F11433"/>
<circle cx="74.6917" cy="64.7007" r="1.38308" fill="#F04A54"/>
<path d="M41.0371 61.9345V56.5386C41.0371 54.1717 42.9559 52.2529 45.3228 52.2529H55.79" stroke="#F94D50" stroke-width="2.67857" stroke-linecap="square"/>
<defs>
<linearGradient id="paint0_linear_942_384" x1="59.9997" y1="17.1428" x2="59.9997" y2="102.857" gradientUnits="userSpaceOnUse">
<stop stop-color="#FD7566"/>
<stop offset="1" stop-color="#F1082B"/>
</linearGradient>
</defs>
</svg>
