<svg width="112" height="112" viewBox="0 0 112 112" fill="none" xmlns="http://www.w3.org/2000/svg">
<rect width="112" height="112" rx="32" fill="white"/>
<rect x="16" y="16" width="80" height="80" rx="32" fill="url(#paint0_linear_912_337)"/>
<path fill-rule="evenodd" clip-rule="evenodd" d="M56.1084 69.8058C64.0726 69.8058 70.5289 63.3675 70.5289 55.4254C70.5289 47.4833 64.0726 41.045 56.1084 41.045C48.1441 41.045 41.6878 47.4833 41.6878 55.4254C41.6878 63.3675 48.1441 69.8058 56.1084 69.8058ZM51.3678 54.5616L54.4601 57.5067L60.2118 51.4898C61.1134 50.5467 62.6026 50.4864 63.5778 51.3536C64.6247 52.2845 64.6626 53.9047 63.6604 54.8832L56.6728 61.7057C55.4464 62.9031 53.4824 62.8944 52.2667 61.6863L48.2768 57.7211C47.4088 56.8585 47.4088 55.4569 48.2768 54.5944C49.1275 53.7489 50.4992 53.7343 51.3678 54.5616Z" fill="white"/>
<path d="M43.4272 35.729L42.9654 35.0288C42.2468 33.9395 42.8458 32.4675 44.128 32.2123C75.2405 26.0199 81.1605 44.8876 80.5513 58.5373L83.0152 58.8683C84.4274 59.0581 85.1234 60.684 84.2839 61.8323L79.5328 68.3308C78.5214 69.7143 76.3804 69.4558 75.7292 67.8716L72.6208 60.3097C72.0719 58.9742 73.178 57.5467 74.6124 57.7394L76.9784 58.0573C74.789 33.3202 59.2977 34.1152 45.3348 36.5476C44.5919 36.677 43.8417 36.3574 43.4272 35.729Z" fill="white"/>
<path d="M68.2198 75.271L68.6817 75.9712C69.4002 77.0605 68.8013 78.5326 67.5191 78.7878C36.4066 84.9801 30.4865 66.1124 31.0958 52.4627L28.6319 52.1317C27.2196 51.9419 26.5236 50.316 27.3631 49.1677L32.1142 42.6692C33.1257 41.2857 35.2667 41.5442 35.9179 43.1284L39.0262 50.6903C39.5752 52.0258 38.4691 53.4533 37.0347 53.2606L34.6686 52.9427C36.8581 77.6798 52.3494 76.8848 66.3123 74.4524C67.0552 74.323 67.8054 74.6426 68.2198 75.271Z" fill="white"/>
<defs>
<linearGradient id="paint0_linear_912_337" x1="56" y1="16" x2="56" y2="96" gradientUnits="userSpaceOnUse">
<stop stop-color="#FD7566"/>
<stop offset="1" stop-color="#F1082B"/>
</linearGradient>
</defs>
</svg>
