<svg width="32" height="32" viewBox="0 0 32 32" fill="none" xmlns="http://www.w3.org/2000/svg">
<path fill-rule="evenodd" clip-rule="evenodd" d="M29.2025 9.24667C28.1625 8.12667 24.9625 10.14 23.1491 11.42C23.4558 12.74 23.6025 14.2733 23.6025 16.0067C23.6025 17.7267 23.4558 19.2333 23.1625 20.5533C24.6158 21.58 26.9891 23.0867 28.3758 23.0867C28.7225 23.0867 29.0158 22.9933 29.2025 22.78C30.4425 21.46 30.4425 10.58 29.2025 9.24667Z" fill="black"/>
<path fill-rule="evenodd" clip-rule="evenodd" d="M11.7491 6.10001C4.45581 6.10001 1.86914 8.70001 1.86914 16.0067C1.86914 23.3133 4.45581 25.9 11.7491 25.9C19.0291 25.9 21.6025 23.3133 21.6025 16.0067C21.6025 8.70001 19.0291 6.10001 11.7491 6.10001Z" fill="black"/>
</svg>
