<svg width="24" height="25" viewBox="0 0 24 25" fill="none" xmlns="http://www.w3.org/2000/svg">
<path fill-rule="evenodd" clip-rule="evenodd" d="M18.16 12.3001C18.16 12.7141 17.824 13.0501 17.41 13.0501C16.996 13.0501 16.66 12.7141 16.66 12.3001C16.66 11.8861 16.996 11.5501 17.41 11.5501C17.824 11.5501 18.16 11.8861 18.16 12.3001ZM15.457 12.3601C15.457 13.3591 16.271 14.1721 17.27 14.1721H21.73C21.772 13.6441 21.8 13.0951 21.8 12.5001C21.8 11.7981 21.765 11.1551 21.706 10.5461H17.27C16.271 10.5461 15.457 11.3601 15.457 12.3601Z" fill="#575757"/>
<path fill-rule="evenodd" clip-rule="evenodd" d="M11.6512 9.141H7.59122C7.17722 9.141 6.84122 8.805 6.84122 8.391C6.84122 7.977 7.17722 7.641 7.59122 7.641H11.6512C12.0652 7.641 12.4012 7.977 12.4012 8.391C12.4012 8.805 12.0652 9.141 11.6512 9.141ZM17.2702 15.672C15.4432 15.672 13.9572 14.186 13.9572 12.36C13.9572 10.533 15.4432 9.046 17.2702 9.046H21.4802C20.6022 4.992 17.8092 3.461 12.0002 3.461C4.76422 3.461 2.19922 5.827 2.19922 12.5C2.19922 19.174 4.76422 21.539 12.0002 21.539C17.9422 21.539 20.7302 19.939 21.5382 15.672H17.2702Z" fill="#575757"/>
</svg>
