<svg width="14" height="15" viewBox="0 0 14 15" fill="none" xmlns="http://www.w3.org/2000/svg">
<path d="M7.00066 0.833313C10.6827 0.833313 13.6673 3.81798 13.6673 7.49998C13.6673 11.182 10.6827 14.1666 7.00066 14.1666C5.8225 14.1687 4.66505 13.8569 3.64733 13.2633L0.336661 14.1666L1.23799 10.8546C0.643967 9.8366 0.33193 8.67866 0.333995 7.49998C0.333995 3.81798 3.31866 0.833313 7.00066 0.833313ZM4.72866 4.36665L4.59533 4.37198C4.50912 4.37792 4.42489 4.40056 4.34733 4.43865C4.27504 4.47965 4.20904 4.53084 4.15133 4.59065C4.07133 4.66598 4.02599 4.73131 3.97733 4.79465C3.73074 5.11525 3.59798 5.50886 3.59999 5.91331C3.60133 6.23998 3.68666 6.55798 3.81999 6.85531C4.09266 7.45665 4.54133 8.09331 5.13333 8.68331C5.27599 8.82531 5.416 8.96798 5.56666 9.10065C6.30228 9.74825 7.17885 10.2153 8.12666 10.4646L8.50533 10.5226C8.62866 10.5293 8.752 10.52 8.876 10.514C9.07012 10.5037 9.25966 10.4512 9.43133 10.36C9.51856 10.3149 9.60375 10.2659 9.68666 10.2133C9.68666 10.2133 9.71488 10.1942 9.77 10.1533C9.86 10.0866 9.91533 10.0393 9.99 9.96131C10.046 9.90354 10.0927 9.83642 10.13 9.75998C10.182 9.65131 10.234 9.44398 10.2553 9.27131C10.2713 9.13931 10.2667 9.06731 10.2647 9.02265C10.262 8.95131 10.2027 8.87731 10.138 8.84598L9.75 8.67198C9.75 8.67198 9.17 8.41931 8.81533 8.25798C8.7782 8.24182 8.73844 8.23256 8.698 8.23065C8.65238 8.22587 8.60627 8.23096 8.56279 8.24557C8.51931 8.26018 8.47948 8.28396 8.446 8.31531C8.44266 8.31398 8.39799 8.35198 7.91599 8.93598C7.88833 8.97315 7.85022 9.00125 7.80653 9.01668C7.76284 9.03212 7.71554 9.03419 7.67066 9.02265C7.62721 9.01107 7.58466 8.99636 7.54333 8.97865C7.46066 8.94398 7.43199 8.93065 7.37533 8.90665C6.99258 8.73992 6.63829 8.5143 6.32533 8.23798C6.24133 8.16465 6.16333 8.08465 6.08333 8.00731C5.82107 7.75612 5.5925 7.47197 5.40333 7.16198L5.36399 7.09865C5.33617 7.05584 5.31335 7.00999 5.29599 6.96198C5.27066 6.86398 5.33666 6.78531 5.33666 6.78531C5.33666 6.78531 5.49866 6.60798 5.57399 6.51198C5.64733 6.41865 5.70933 6.32798 5.74933 6.26331C5.82799 6.13665 5.85266 6.00665 5.81133 5.90598C5.62466 5.44998 5.43177 4.99642 5.23266 4.54531C5.19333 4.45598 5.07666 4.39198 4.97066 4.37931C4.93466 4.37487 4.89866 4.37131 4.86266 4.36865C4.77315 4.36351 4.68339 4.3644 4.59399 4.37131L4.72866 4.36665Z" fill="#FF8813"/>
</svg>
