<svg width="22" height="24" viewBox="0 0 22 24" fill="none" xmlns="http://www.w3.org/2000/svg">
<path d="M13.7129 16.6607V19.4866C13.7129 20.0848 13.5389 20.3839 13.1908 20.3839C12.9856 20.3839 12.7848 20.2857 12.5884 20.0893V16.058C12.7848 15.8616 12.9856 15.7634 13.1908 15.7634C13.5389 15.7634 13.7129 16.0625 13.7129 16.6607ZM18.2375 16.6741V17.2902H17.0327V16.6741C17.0327 16.067 17.2335 15.7634 17.6351 15.7634C18.0367 15.7634 18.2375 16.067 18.2375 16.6741ZM5.30626 13.7545H6.7386V12.4955H2.56206V13.7545H3.96762V21.375H5.30626V13.7545ZM9.16153 21.375H10.3529V14.7589H9.16153V19.8214C8.8938 20.1964 8.63946 20.3839 8.3985 20.3839C8.23787 20.3839 8.14416 20.2902 8.11739 20.1027C8.10847 20.0759 8.10401 19.9196 8.10401 19.6339V14.7589H6.91262V19.9955C6.91262 20.433 6.94832 20.7589 7.01971 20.9732C7.1268 21.3036 7.3856 21.4688 7.79612 21.4688C8.22448 21.4688 8.67962 21.1964 9.16153 20.6518V21.375ZM14.9043 19.3929V16.7545C14.9043 16.1027 14.8641 15.6607 14.7838 15.4286C14.6321 14.9286 14.3153 14.6786 13.8334 14.6786C13.3872 14.6786 12.9722 14.9196 12.5884 15.4018V12.4955H11.397V21.375H12.5884V20.7321C12.99 21.2232 13.405 21.4688 13.8334 21.4688C14.3153 21.4688 14.6321 21.2232 14.7838 20.7321C14.8641 20.4911 14.9043 20.0446 14.9043 19.3929ZM19.4289 19.2589V19.0848H18.2107C18.2107 19.5402 18.2018 19.8125 18.1839 19.9018C18.1215 20.2232 17.943 20.3839 17.6485 20.3839C17.238 20.3839 17.0327 20.0759 17.0327 19.4598V18.2946H19.4289V16.9152C19.4289 16.2098 19.3084 15.692 19.0674 15.3616C18.7194 14.9062 18.2464 14.6786 17.6485 14.6786C17.0416 14.6786 16.5642 14.9062 16.2161 15.3616C15.9663 15.692 15.8413 16.2098 15.8413 16.9152V19.2321C15.8413 19.9375 15.9707 20.4554 16.2295 20.7857C16.5776 21.2411 17.0595 21.4688 17.6752 21.4688C18.3178 21.4688 18.7997 21.2321 19.121 20.7589C19.2816 20.5179 19.3753 20.2768 19.4021 20.0357C19.4199 19.9554 19.4289 19.6964 19.4289 19.2589ZM11.29 7.03125V4.21875C11.29 3.60268 11.0981 3.29464 10.7143 3.29464C10.3306 3.29464 10.1387 3.60268 10.1387 4.21875V7.03125C10.1387 7.65625 10.3306 7.96875 10.7143 7.96875C11.0981 7.96875 11.29 7.65625 11.29 7.03125ZM20.9147 17.0893C20.9147 19.1786 20.7987 20.7411 20.5667 21.7768C20.4418 22.3036 20.183 22.7455 19.7903 23.1027C19.3976 23.4598 18.9425 23.6652 18.4249 23.7188C16.7828 23.9062 14.3063 24 10.9955 24C7.68457 24 5.20809 23.9062 3.56603 23.7188C3.04843 23.6652 2.59106 23.4598 2.19393 23.1027C1.7968 22.7455 1.54023 22.3036 1.42422 21.7768C1.19219 20.7768 1.07617 19.2143 1.07617 17.0893C1.07617 15 1.19219 13.4375 1.42422 12.4018C1.54916 11.875 1.80796 11.433 2.20063 11.0759C2.59329 10.7188 3.05289 10.5089 3.57942 10.4464C5.21255 10.2679 7.68457 10.1786 10.9955 10.1786C14.3063 10.1786 16.7828 10.2679 18.4249 10.4464C18.9425 10.5089 19.3999 10.7188 19.797 11.0759C20.1941 11.433 20.4507 11.875 20.5667 12.4018C20.7987 13.4018 20.9147 14.9643 20.9147 17.0893ZM7.55516 0H8.92057L7.30082 5.34375V8.97321H5.96219V5.34375C5.83725 4.68303 5.56506 3.73661 5.14562 2.50446C4.81543 1.58482 4.52539 0.75 4.27551 0H5.69446L6.64489 3.52232L7.55516 0ZM12.5081 4.45982V6.80357C12.5081 7.52678 12.3832 8.05357 12.1333 8.38393C11.7942 8.83929 11.3212 9.06696 10.7143 9.06696C10.1164 9.06696 9.6479 8.83929 9.30878 8.38393C9.0589 8.04464 8.93396 7.51786 8.93396 6.80357V4.45982C8.93396 3.74553 9.0589 3.22321 9.30878 2.89286C9.6479 2.4375 10.1164 2.20982 10.7143 2.20982C11.3212 2.20982 11.7942 2.4375 12.1333 2.89286C12.3832 3.22321 12.5081 3.74553 12.5081 4.45982ZM16.9925 2.29018V8.97321H15.7744V8.23661C15.3014 8.79018 14.8418 9.06696 14.3956 9.06696C13.9851 9.06696 13.7218 8.90179 13.6058 8.57143C13.5344 8.35714 13.4987 8.02232 13.4987 7.56696V2.29018H14.7169V7.20536C14.7169 7.5 14.7213 7.65625 14.7302 7.67411C14.757 7.87053 14.8507 7.96875 15.0114 7.96875C15.2523 7.96875 15.5067 7.77678 15.7744 7.39286V2.29018H16.9925Z" fill="white"/>
</svg>
